<svg xmlns="http://www.w3.org/2000/svg" viewBox="0 0 261 276"><path d="M113.01 186.96l1.92-2.37 1.33-1.48.15-1.18.59-1.03.59-1.92.89-1.18.59-2.22.89-1.33 2.96-2.66v-.3l.15-1.03 3.55-3.25 1.03-1.33 3.4-.44 1.63.29 2.81.59 1.63-.89h1.03l1.92-2.07 1.77-.15.59-.74 2.36-.15.3-1.33-.89-1.48-.89-1.62-.3-1.33 1.04-1.18 2.51-2.07 2.37.15 1.22-1.34-.04.01.59-.89 1.33-1.48 1.92-.74.74-.59 1.18-.44 1.18-.89.59-1.18.59-1.03 1.92-.44 1.18-.44 1.77-.3 1.18-.15 3.1-3.1.3-.89 2.96-.3 1.04-.59h1.63l1.63-.44.3-1.33.89-.74-.15-1.46-.89-.06v-1.44l-1.55-.67-1-1.77-1.66-1.55-2.33-1.66-2.55-2.44-.33-1.44-1-.89-.22-1.44-2-.89-1.11-.44-1-1.11v-1.33l-1-.44-.89-2-.33-2.11-.55-.78-.22-1.22-1.44-.67h-.78l-.78.67h-1.33l-.78-.55-2-2.33-.11-9.31-.78-.78-.11-.67-.78-.66-1.88-1.44-.44-.67-1.89-.11-.89.44-.55 1.11-1.33.11-.22-.78-1-.22-.33-.89.55-1.33.22-1.33-.89-1-.22-.78.55-1-.78-1V86.2l1.22-1.66-.78-1.11-.33-2 1.11-.78.11-2-.33-1-.22-.89c.44-1 2.44-3.1 2.44-3.1h2.55l2.33-1.33.33-2.33.55-.78-.89-1.22c-.11-.67 1.22-1.22 1.22-1.22l1.88-.44.55-.55.11-1.44-.89-.67-4.21-6.32-.33-.55-1.44-2.88 3.1-3.55 2.99-.33 5.21-5.21.44-.67v-2.33c1.34 1.11 8.76-11.64 8.76-11.64 1.99-7.04 8.06-11.11 11.01-12.72h-54.34v96.82L69.33 17.51H14.96v188.07h50.05V110.5l47.61 76.66.39-.2z" fill="#3d9645"/><path fill="#070707" d="M187.51 220.37l1.63 2.22-.89-1.33z"/><path d="M178.82 17.51L202.03 32l35.92 19.29-.11 4.32s-.89 8.43-6.32 15.63l-.33 1.11-.22 1.77-.89 1.66.11 2.11.67 1.11.11.67-.67.67-3.33 2.11-1.1 1.55-.78 1.44-1.77.89-1.55-.33.22-1.66 1.88-2.33.44-1-.44-.55-1.66.33-2.11 2.66-1 2.22-3.44 3.22.22 1.77-.67.89.11 1.44-.33 1.33-1.55.78-.66 1.22-.33 2.88-.78 1.22-.55 1.33-1.33-.67-1.88-.78-.78.78-1.33 1.55-2.22.89 2.55-.22 1-1.22 1.22-.44 1.44.44.33 1 .67 1.33 1.33 1.11.33.89.89-.44 1.11.55 1 .78h1l.22-.67.55-.67 1.22.44 1-.11.55-.44.78-.33 1.22.66.78 1 1.22.22 1.11.33 1.11.55 1.55 1.11 1.55.33 1.22.22 1.11.89.33-1v-1.11l-.55-1-1.11-.89.11-.89.44-.78-.44-1.77.89.33.89 1.44.78.89.33 1.55.44 1.55.11 2-.67.89h-2.33l-1.89.44-1.11 1.44-.78.33-.89.67.55.44 1.66-.55 1-1.22 2-.67 1.55.44-1.55 1.66-.44 1.44-.89.67-.22 1.44.78-.55 1.22-.55.11-1.88 1.88-.89-.33 2.11.22 1.11-.78 1.33.11 1.22.11 3.44-.66 1.22-.78 1.44-.44.89-.22 3.55-.67.78-3.22.22 1 1 2-.22.11 1.33-.67 1.44-.33 4.43-1.29.47.14 1.85-.74 1.18-.59 1.33-1.33 1.03-1.18-.44-1.18.3-.59 1.03v1.77l-.89 1.33-.15 1.04 1.04 1.03 1.33.89.3 1.33-.74 1.03-.15 1.18-1.63.15-1.48-.59-1.33-.89.15 1.33 1.04 1.18 1.77.15 1.18.3.15 1.03-1.03 1.33-.74 1.33-.59 1.48 1.18.89-1.03 2.07-1.33 1.92-.44 1.48-.89 1.77v1.48l-.74 1.03.59 1.92 1.48.74v.89l-.15 1.92-1.33 1.33-.89 1.33-.74 2.22-1.18 1.48-1.92.3-.59 1.33-1.33 2.07-1.63.15-1.04 1.62-1.33 1.18-.59 1.33 1.33 1.33-.29.89-1.63.59-1.92-.44-1.92.59-1.03 1.63-.59 1.33 1.03 2.36-.15 1.92-1.18 1.18-1.33-.29-.89-.3-.89 1.18-.74 1.63-1.03 1.33v2.07l-1.33 2.07h-1.48l-.59 1.48-2.07 1.92-.89 2.22-2.07 1.04h-1.18l-1.04.74-.89.3.3 1.63-.15 1.63-1.18 1.77-2.07 2.81-1.63 1.77-2.22 1.92.15 1.33-.44 2.37-1.33 1.92-1.92 1.03-.89 1.18-1.33.74.15 1.03 1.03 1.03-.44 1.77-.89 1.77-2.37 1.48-2.07 1.03-1.63 1.03-.89 2.22-.15 1.63-.89 1.33h-1.33l-1.18-1.03-1.48-.44-1.18-.15-.3-2.07.44-2.81 1.04-2.07 2.22-3.1 1.03-3.25 1.03-1.62-.44-2.22-1.18-2.37-1.03-1.29v.26l-1.48-.44-1.92-.59h-4.29l-.59-.74-.3-1.33-1.03-.59-1.33.59-1.92.29-1.77.44-.44 1.33-1.18.74-.74-.44-1.48-.59-1.04-.3.3-.74.44-1.18.15-1.77-1.03-1.18-1.63-1.03-1.77-.74-.89-1.03-1.03-2.22-1.03-.59-1.33.3-1.04 1.03-.89-.74-.89-1.33-.74-.89v-1.48l-.59-.89-.44-.89-1.03.44-.74 1.04-.59-.74-.89-.74-.89-1.18-.59-.89-.89-1.33-2.22-.44-.44-1.33-.59-1.63-3.1-2.96-.89-1.03-1.92-.15-1.03-.89-.59-1.18.89-1.03.15-2.07.74-3.4.89-1.62.15-1.33-1.03-1.04-1.43-1.02H86.69v6.17c0 .31.02.61.02.91.49 36.5 30.22 66.25 66.71 66.78.33 0 .65.02.98.02h25.51c.87 0 1.73-.03 2.58-.07 36.06-1.37 65.13-31.27 65.13-67.65V17.51h-68.8zm50.23 128.95l-.89 4.29-.59 3.1-.15 1.48c-1.63 20.84-6.65 27.35-6.65 27.35l-1.33 3.4c-2.66 6.65-7.39 11.53-7.39 11.53l-1.18 1.48-2.66.44-.2-.17-.1 1.05.74 1.63.3 1.48-1.33 1.18-.59 1.92-1.04 2.22-2.81 2.51-1.92 1.03-.59 1.48-1.63 1.33-2.37 1.33-2.81 2.22-1.77 1.03-1.77.44-.59 1.63-.59.74-.59 1.04s-1.63 1.33-4.14 4.58l-.3.74-1.18.59-.59 1.48s-1.63 4.73-3.4 6.21l-.74 1.63s-1.48 5.47-5.91 9.17l-.3 1.77s-8.43 8.28-12.71 7.69l-1.04-.59 1.63-.44 1.33-.74 1.92-.59 1.18-.74 2.07-1.92.89-1.77 1.33-.44.74-1.48 1.77-1.33 2.22-2.66 1.63-2.07 1.63-2.07.44-2.51.89-2.22 1.63-3.1.74-2.07 1.77-2.07 1.63-2.07 1.63-2.51.74-2.22 1.48-1.48 1.63-.44 1.33-1.48 1.92-1.92 1.04-1.48 1.77-.44 1.48-1.03.89-1.33v-2.07l.44-1.18 1.63.15.89.89 1.48-.89 1.33-2.07.59-.89-.3-1.18.44-2.22 1.03-1.04-1.33-1.33.44-1.03 2.22-.15 1.07-.29-.18-.15v-1.18l.89-1.03 1.48.59s1.18-1.03.89-1.77c-.3-.74.15-1.03.15-1.03h1.03l.74-1.04-.59-.89-.3-.74.89-.59 1.18-1.62 1.63-.59 1.18-1.03.15-1.92.3-1.04 1.48-.59.44-1.77 1.18-1.18-.15-1.33.15-1.04 1.77-2.07.89-2.22h-.59l-1.48.15-.3-1.04 1.77-.15.74-1.33-.89-.44-.3-1.03 1.92-1.33 1.92-9.76-.15-2.22-.59-1.33.74-.89.89-1.63-.74-1.18-1.04-1.18-.15-1.18 1.03-.74.74-1.18 1.03-.44.89-2.22 1.33-3.4-.44 4.24z" fill="#0081c5"/></svg>