<svg width="167" height="51" fill="none" xmlns="http://www.w3.org/2000/svg"><path d="M40.7 50.7H.3v-44h36.6v3H3.3v38h34.4V32.5h3v18.2z" fill="#fff"/><path d="M32.7 26.2H8.2v2h24.5v-2zm7.3 5.1H8.2v-2h26l5.8 2zm-3.7 1.2H8.2v2h28.1v-2zm0 3.1H8.2v2h28.1v-2zm0 3.2H8.2v2h28.1v-2z" fill="#fff"/><path d="M39.2 31.3a12.7 12.7 0 010-25.4v4a8.7 8.7 0 107.6 4.4l3.5-2a12.8 12.8 0 01-11.1 19z" fill="#fff"/><path d="M35.8 15.7V.8L44 9.1l-8.2 6.6zm30 9.1l-.1 2-.4 1.1c-.2.3-.6.6-1 .8-.4.2-.9.3-1.4.3l-1.4-.2c-.4-.1-.7-.4-1-.7-.3-.3-.4-.7-.4-1.1l-.1-2.1v-1.6l.1-2c0-.4.2-.8.4-1.1.2-.3.6-.6 1-.8.4-.2.9-.3 1.4-.3l1.4.2c.4.1.7.4 1 .7.3.3.4.7.4 1.1l.1 2.1v1.6zm-2.5-3.1l-.1-.8c-.1-.1-.1-.2-.3-.2l-.3.1-.1.9v4.4l.1 1c.1.1.1.2.3.2.2 0 .3-.1.3-.2l.1-1.1v-4.3zm4.3-2.5h2.5l1.5.2.8.5.4.7.1 1.3v.8l-.2 1.3c-.1.3-.4.5-.7.6l-1.3.2H70v3.8h-2.5v-9.4h.1zm2.4 1.6v2.4h.2l.5-.2.1-.7v-.8l-.2-.6-.6-.1zm4.5-1.6h1.7l2.4.1c.4.1.7.3 1 .7.3.4.4 1 .4 1.8 0 .7-.1 1.2-.3 1.5-.2.3-.5.4-1.1.5.5.1.8.3 1 .5l.3.6.1 1.4v2.5h-2.3v-3.2l-.1-.9-.6-.2v4.3h-2.5v-9.6zm2.4 1.6v2.1l.6-.1c.1-.1.2-.3.2-.7v-.5l-.2-.6-.6-.2zm9.2-1.6l1.4 9.5H85l-.1-1.7H84l-.1 1.7h-2.6l1.3-9.5h3.5zm-1.3 6.1l-.4-4-.5 4h.9zm7.8-9.2h1.7v14.7h-1.7V16.1zm14.4 8.7l-.1 2-.4 1.1c-.2.3-.6.6-1 .8-.4.2-.9.3-1.4.3l-1.4-.2c-.4-.1-.7-.4-1-.7-.3-.3-.4-.7-.4-1.1l-.1-2.1v-1.6l.1-2c0-.4.2-.8.4-1.1.2-.3.6-.6 1-.8.4-.2.9-.3 1.4-.3l1.4.2c.4.1.7.4 1 .7.3.3.4.7.4 1.1l.1 2.1v1.6zm-2.5-3.1l-.1-.8c-.1-.1-.1-.2-.3-.2l-.3.1-.1.9v4.4l.1 1c.1.1.1.2.3.2.2 0 .3-.1.3-.2l.1-1.1v-4.3zm6.6-.8v.7c.2-.3.4-.5.7-.6l.8-.2c.4 0 .7.1 1 .3.3.2.4.4.5.7l.1 1.3v3.3l-.1 1.5-.5.7c-.2.2-.6.3-.9.3a1.9 1.9 0 01-1.5-.8v1.8h-2.4V21h2.3v-.1zm.7 2.3l-.1-.9c-.1-.1-.1-.2-.3-.2-.2 0-.3.1-.3.2l-.1.8v3.2l.1.9c.1.1.1.2.3.2.2 0 .2-.1.3-.2l.1-.8v-3.2zm9.4 1.7h-3.1v1.7l.1.7c.1.1.1.2.3.2l.4-.2.1-.8v-1h2.2v.5l-.1 1.1a3 3 0 01-.4.8l-.8.7c-.3.2-.8.2-1.3.2l-1.3-.2c-.4-.1-.7-.3-.9-.6-.2-.3-.4-.5-.4-.8l-.1-1.3v-2.3c0-.7.1-1.2.3-1.6.2-.4.5-.7.9-.9.4-.2.9-.3 1.4-.3.7 0 1.2.1 1.6.4.4.3.7.6.9 1 .2.4.3 1 .3 1.8v.9h-.1zm-2.4-1.2v-.6l-.1-.8c-.1-.1-.1-.2-.3-.2l-.3.1-.1.8v.6h.8v.1zm6.5-2.8v.7l.6-.6.9-.2c.4 0 .7.1 1 .3.3.2.4.4.5.7l.1 1.5v5.4H126v-5.4l-.1-1c-.1-.1-.1-.2-.3-.2-.2 0-.3.1-.3.2l-.1 1.1v5.3h-2.4v-7.8h2.5zM60.1 33.6h2.5l1.5.2.8.5.4.7.1 1.3v.8l-.2 1.3c-.1.3-.4.5-.7.6l-1.3.2h-.7V43H60v-9.4h.1zm2.5 1.6v2.4h.2l.5-.2.1-.7V36l-.2-.6-.6-.2zm9.8.1v7.8H70v-.6l-.6.6a1.9 1.9 0 01-1.7 0l-.5-.5-.2-.7v-6.5h2.4v5.3l.1 1.1c.1.1.1.2.3.2.2 0 .3-.1.3-.2v-6.3h2.3v-.2zm4.1-1.7v2.2l.7-.5.8-.2.8.2.5.4.2.5v4.6l-.1 1.3-.5.7c-.2.2-.6.3-1 .3l-.8-.2-.7-.5-.2.6H74v-9.5h2.5v.1zm.7 3.9l-.1-.8-.3-.2-.3.2-.1.8v3.4l.1.8c.1.1.1.2.3.2l.3-.2.1-.9v-3.3zm6.5-3.9v9.5h-2.4v-9.5h2.4zm4.2 0v1.2h-2.4v-1.2h2.4zm0 1.7v7.8h-2.4v-7.8h2.4zm6.9 3h-2.2v-.9l-.1-.6c-.1-.1-.1-.2-.3-.2l-.3.1-.1.7V41l.1.6.3.2c.2 0 .3-.1.3-.2l.1-.8v-.9h2.1l-.1 1.4-.4 1c-.2.4-.5.6-.9.7a5 5 0 01-1.3.2c-.7 0-1.2-.1-1.6-.3-.4-.2-.7-.5-.8-1l-.2-1.8V38l.2-1.5c.1-.3.4-.6.8-.9.4-.3 1-.4 1.6-.4a3 3 0 011.6.4c.5.3.7.6.9 1 .2.4.3.9.3 1.7zm4.7-4.7h1.7l2.4.1c.4.1.7.3 1 .7.3.4.4 1 .4 1.8 0 .7-.1 1.2-.3 1.5-.2.3-.5.4-1.1.5.5.1.8.3 1 .5l.3.6.1 1.4v2.5h-2.3V40l-.1-.9-.6-.2v4.3h-2.5v-9.6zm2.5 1.6v2.1l.6-.1c.1-.1.2-.3.2-.7V36l-.2-.6a1 1 0 00-.6-.2zm10.1 4.1H109V41l.1.7c.1.1.1.2.3.2l.4-.2.1-.8v-1h2.2v.6l-.1 1.1a3 3 0 01-.4.8l-.8.7c-.3.2-.8.2-1.3.2a5 5 0 01-1.3-.2c-.4-.1-.7-.3-.9-.6-.2-.3-.4-.5-.4-.8l-.1-1.3V38c0-.7.1-1.2.3-1.6.2-.4.5-.7.9-.9.4-.2.9-.3 1.4-.3.7 0 1.2.1 1.6.4.4.3.7.6.9 1 .2.4.3 1 .3 1.8v.9h-.1zm-2.3-1.2v-.6l-.1-.8c-.1-.1-.1-.2-.3-.2l-.3.1-.1.8v.6h.8v.1zm9.2.2h-2.2v-.9l-.1-.6c-.1-.1-.1-.2-.3-.2l-.3.1-.1.7V41l.1.6.3.2c.2 0 .3-.1.3-.2l.1-.8v-.9h2.1l-.1 1.4-.4 1c-.2.4-.5.6-.9.7l-1.3.2c-.7 0-1.2-.1-1.6-.3-.4-.2-.7-.5-.8-1l-.2-1.8V38l.2-1.5c.1-.3.4-.6.8-.9.4-.3 1-.4 1.6-.4a3 3 0 011.6.4c.5.3.7.6.9 1 .2.4.3.9.3 1.7zm7-.2V40l-.1 1.5c-.1.3-.2.6-.5.9-.3.3-.5.5-.9.6l-1.2.2-1.3-.2-.8-.5-.4-.8-.1-1.5v-2l.2-1.7c.1-.4.4-.7.8-1 .4-.3.9-.4 1.6-.4l1.4.2c.4.1.7.4.9.6l.4.8v1.4zm-2.4-.6l-.1-.8c-.1-.2-.1-.2-.3-.2-.2 0-.2.1-.3.2l-.1.8V41l.1.7c.1.1.1.2.3.2l.3-.2.1-.7v-3.5zm6.4-2.2l-.1 1c.3-.7.8-1.1 1.5-1.2v2.7l-1 .2-.4.5v4.6h-2.4v-7.8h2.4zm8.2-1.7v9.5h-2.4v-.6a3 3 0 01-.7.5l-.8.2c-.4 0-.7-.1-1-.3-.3-.2-.4-.4-.5-.7l-.1-1.2v-3.6l.1-1.3.5-.7c.2-.2.6-.3 1-.3l.8.2.7.5v-2.2h2.4zm-2.4 3.7l-.1-.6-.3-.1-.3.1-.1.6v3.8l.1.6.3.1c.2 0 .3-.1.3-.2l.1-.8v-3.5zm9 .5h-2.1v-.4l-.1-.7-.3-.1-.3.1-.1.4v.5l.3.4 1 .6c.7.3 1.1.7 1.4.9.3.2.3.7.3 1.3l-.2 1.4c-.1.3-.4.6-.8.7-.4.1-.8.3-1.4.3-.6 0-1.1-.1-1.5-.3-.4-.2-.7-.4-.9-.8-.2-.4-.2-.8-.2-1.5v-.4h2.1v.5l.1.8.3.2.4-.1.1-.5-.1-.7-1.4-.8c-.7-.4-1.1-.7-1.3-1.1-.2-.4-.2-.7-.2-1.1l.2-1.4c.1-.3.4-.5.8-.7.4-.2.8-.2 1.4-.2l1.3.2.8.5.4.6.1.9v.5h-.1zm9-4.2l1.4 9.5h-2.5l-.1-1.7h-.9l-.1 1.7H149l1.3-9.5h3.5zm-1.3 6.1l-.4-4-.5 4h.9zm9.2-1.4h-2.2v-.9l-.1-.6c-.1-.1-.1-.2-.3-.2l-.3.1-.1.7V41l.1.6.3.2c.2 0 .3-.1.3-.2l.1-.8v-.9h2.1l-.1 1.4-.4 1c-.2.4-.5.6-.9.7a5 5 0 01-1.3.2c-.7 0-1.2-.1-1.6-.3-.4-.2-.7-.5-.8-1l-.2-1.8V38l.2-1.5c.1-.3.4-.6.8-.9.4-.3 1-.4 1.6-.4a3 3 0 011.6.4c.5.3.7.6.9 1 .2.4.3.9.3 1.7zm4.1-4v1.2h.6v1.2h-.6v4.2l.1.9.7.1v1.3h-1l-1.2-.1-.6-.3c-.2-.2-.3-.3-.3-.6l-.1-1.5v-3.9h-.5v-1.2h.5v-1.2h2.4v-.1z" fill="#fff"/></svg>