<svg viewBox="0 0 684.84 214.05" xmlns="http://www.w3.org/2000/svg"><path d="M23.16 138.16V37.23h34.16l36.57 67.74V37.23h25.91v100.93H84.38L49.01 70.21v67.95z" fill="#00a160"/><path d="M122.65 141.01h-40L51.86 81.85v59.16H20.31V34.38h38.71L91.04 93.7V34.38h31.6v106.63zm-36.54-5.7h30.85V40.08H96.74v64.9l-5.35 1.35-35.77-66.25H26v95.24h20.16v-65.1l5.37-1.31zM172.5 97.92V37.23h27.44v60.69c0 14.84-3.36 25.78-10.09 32.81-6.72 7.03-17.21 10.54-31.46 10.54-11.59 0-20.29-3.03-26.1-9.09s-8.72-15.12-8.72-27.19v-2.71h26.46v1.18c0 5.92.87 10.29 2.62 13.11s4.45 4.23 8.09 4.23c4.34 0 7.38-1.65 9.13-4.96 1.76-3.3 2.63-9.27 2.63-17.92z" fill="#00a160"/><path d="M158.4 144.13c-12.35 0-21.82-3.35-28.17-9.97-6.32-6.58-9.52-16.4-9.52-29.17v-5.57h32.19v4.04c0 5.35.74 9.25 2.19 11.6 1.22 1.96 3.01 2.88 5.65 2.88 4.28 0 5.81-1.96 6.6-3.43 1.05-1.98 2.29-6.46 2.29-16.59V34.36h33.17v63.56c0 15.54-3.66 27.24-10.88 34.79-7.24 7.58-18.52 11.42-33.52 11.42zm-31.95-38.98c.03 11.17 2.69 19.59 7.92 25.04 5.22 5.44 13.31 8.21 24.03 8.21 13.37 0 23.26-3.25 29.39-9.66 6.17-6.44 9.29-16.81 9.29-30.82V40.1h-21.71v57.82c0 9.21-.97 15.51-2.96 19.27-1.56 2.96-4.86 6.49-11.66 6.49-4.62 0-8.26-1.93-10.53-5.59-1.87-3.02-2.87-7.26-3.03-12.93h-20.74z" fill="#00a160"/><path d="M245.3 138.16V37.23h27.44v39.28h37.06V37.23h27.55v100.93H309.8V98.61h-37.06v39.55z" fill="#0081c6"/><path d="M338.78 139.59h-30.4v-39.55h-34.21v39.55h-30.29V35.81h30.29v39.28h34.21V35.81h30.4zm-27.55-2.85h24.7V38.66h-24.7v39.28h-39.91V38.66h-24.59v98.08h24.59V97.18h39.91zM368.93 109.42v1.57c0 4.61.98 8.04 2.95 10.3s4.98 3.39 9.02 3.39c3.28 0 5.85-.79 7.71-2.36s2.99-3.91 3.39-7.01h23.62c-.36 7.89-3.72 14.03-10.06 18.41s-15.09 6.57-26.24 6.57c-12.72 0-22.03-2.94-27.93-8.83-5.9-5.88-8.86-15.14-8.86-27.78 0-12.23 3.32-21.57 9.95-28.02s16.22-9.68 28.75-9.68c11.59 0 20.25 3.38 25.99 10.13s8.61 16.93 8.61 30.52v2.81h-46.9zm23.72-14.85v-.96c0-3.92-.99-6.93-2.98-9.03s-4.84-3.15-8.55-3.15c-3.86 0-6.86 1.07-8.99 3.22-2.13 2.14-3.2 5.18-3.2 9.1v.82z" fill="#0081c6"/><path d="M379.31 141.71c-13.05 0-22.79-3.11-28.94-9.24-6.16-6.13-9.28-15.82-9.28-28.79 0-12.57 3.49-22.34 10.38-29.04 6.88-6.69 16.88-10.09 29.75-10.09 11.97 0 21.08 3.58 27.08 10.63 5.94 6.99 8.95 17.56 8.95 31.44v4.23h-46.9v.15c0 4.23.88 7.38 2.6 9.36 1.7 1.95 4.3 2.9 7.95 2.9 2.92 0 5.2-.68 6.79-2.02 1.59-1.35 2.54-3.35 2.9-6.11l.16-1.24h26.36l-.07 1.49c-.38 8.32-3.98 14.89-10.67 19.51-6.56 4.52-15.66 6.82-27.06 6.82zm1.92-74.31c-12.09 0-21.43 3.12-27.76 9.28-6.31 6.15-9.52 15.23-9.52 27 0 12.18 2.84 21.19 8.44 26.77s14.66 8.41 26.93 8.41c10.81 0 19.36-2.12 25.43-6.32 5.6-3.87 8.67-9.05 9.34-15.81h-20.87c-.58 2.85-1.81 5.1-3.68 6.68-2.12 1.79-5.02 2.7-8.63 2.7-4.46 0-7.85-1.3-10.09-3.88-2.19-2.52-3.3-6.29-3.3-11.24v-3h46.9v-1.38c0-13.18-2.78-23.14-8.27-29.6-5.45-6.38-13.83-9.61-24.92-9.61zM394.08 96H367.5v-2.25c0-4.3 1.22-7.7 3.61-10.11 2.4-2.41 5.76-3.64 10-3.64 4.1 0 7.33 1.21 9.59 3.59 2.24 2.36 3.37 5.73 3.37 10.01V96zm-23.72-2.85h20.86c-.07-3.3-.94-5.85-2.58-7.59-1.72-1.82-4.18-2.7-7.52-2.7-3.5 0-6.11.91-7.98 2.79-1.77 1.78-2.68 4.24-2.78 7.5zM468.99 127.76c-2.48 4.06-5.68 7.07-9.62 9.03s-8.71 2.94-14.32 2.94c-7.98 0-14.12-1.78-18.42-5.34s-6.45-8.6-6.45-15.12c0-8.9 3.71-15.32 11.12-19.26 7.42-3.94 19.83-6.01 37.25-6.19 0-.14.02-.4.06-.79s.05-.67.05-.86c0-3.6-.87-6.3-2.6-8.07-1.73-1.78-4.33-2.67-7.79-2.67-3.13 0-5.54.65-7.22 1.95s-2.68 3.25-3.01 5.85H424.1c.11-7.8 3.06-13.6 8.86-17.42 5.79-3.81 14.63-5.71 26.51-5.71 11.41 0 19.9 2.22 25.47 6.67 5.58 4.45 8.36 11.21 8.36 20.29v35.85c0 2.24.08 4.04.25 5.41.16 1.37.45 2.65.85 3.83h-24.05a36.32 36.32 0 01-1.04-5.1c-.21-1.7-.32-3.46-.32-5.29zm-.55-20.12c-8.38 0-14.09.68-17.14 2.05-3.04 1.37-4.56 3.76-4.56 7.19 0 2.33.74 4.14 2.21 5.44 1.48 1.3 3.56 1.95 6.26 1.95 4.41 0 7.72-1.29 9.92-3.87 2.21-2.58 3.31-6.47 3.31-11.67z" fill="#0081c6"/><path d="M445.05 141.16c-8.29 0-14.79-1.91-19.33-5.66-4.62-3.82-6.97-9.28-6.97-16.22 0-9.42 4-16.33 11.88-20.52 7.39-3.93 19.7-6.07 36.6-6.34.01-.09.01-.17.01-.23 0-3.2-.74-5.58-2.19-7.08-1.44-1.48-3.72-2.24-6.77-2.24-2.8 0-4.93.56-6.34 1.65-1.38 1.07-2.18 2.67-2.46 4.9l-.16 1.25h-26.64l.02-1.45c.12-8.27 3.31-14.52 9.5-18.59 6-3.95 15.19-5.95 27.29-5.95 11.69 0 20.55 2.35 26.36 6.98 5.91 4.71 8.9 11.91 8.9 21.4v35.85c0 2.17.08 3.93.24 5.24.15 1.27.41 2.46.78 3.54l.64 1.88h-27.12l-.29-1.04c-.49-1.75-.85-3.53-1.08-5.3l-.15-1.32c-2.19 2.61-4.79 4.67-7.75 6.15-4.13 2.06-9.16 3.1-14.97 3.1zm13.23-61.15c3.85 0 6.81 1.04 8.81 3.1 1.99 2.05 3 5.1 3 9.07 0 .21-.02.54-.06.98-.03.33-.05.54-.05.66v1.41l-1.41.02c-17.11.18-29.42 2.21-36.6 6.03-6.98 3.71-10.37 9.6-10.37 18 0 6.13 1.94 10.72 5.93 14.02 4.02 3.33 9.91 5.01 17.51 5.01 5.37 0 9.97-.94 13.69-2.79 3.67-1.83 6.71-4.69 9.04-8.5l2.64-4.33v5.07c0 1.76.11 3.48.32 5.12.16 1.28.41 2.58.72 3.85h21.08c-.16-.72-.29-1.47-.38-2.24-.17-1.43-.26-3.26-.26-5.58V93.07c0-8.58-2.63-15.03-7.83-19.17-5.29-4.22-13.56-6.36-24.58-6.36-11.54 0-20.2 1.84-25.73 5.48-5.06 3.33-7.74 8.18-8.16 14.8h21.26c.52-2.38 1.64-4.24 3.33-5.55 1.93-1.5 4.65-2.26 8.1-2.26zm-3.07 45.68c-3.04 0-5.46-.78-7.2-2.3-1.79-1.58-2.7-3.77-2.7-6.51 0-3.96 1.87-6.9 5.41-8.49 3.26-1.47 9.05-2.18 17.72-2.18h1.43v2.52c0 5.53-1.23 9.77-3.65 12.59-2.48 2.91-6.18 4.37-11.01 4.37zm11.81-16.62c-7.37.07-12.45.72-15.12 1.92-2.54 1.14-3.72 3.01-3.72 5.89 0 1.91.57 3.34 1.73 4.37 1.2 1.06 2.99 1.59 5.32 1.59 4.01 0 6.9-1.1 8.84-3.37 1.9-2.24 2.9-5.74 2.95-10.4zM501.64 138.16V37.23h25.96v100.93z" fill="#0081c6"/><path d="M529.03 139.59h-28.82V35.81h28.82zm-25.97-2.85h23.11V38.66h-23.11zM546.5 116.33V83.21h-14.65v-17.1h14.65V53.24l25.64-10.26v23.13h14.7v17.11h-14.7v27.03c0 3.79.77 6.44 2.3 7.97s4.21 2.29 8.04 2.29c.84 0 1.75-.04 2.73-.1.98-.07 2.04-.17 3.17-.31v16.97c-3.53.91-6.86 1.61-9.98 2.09s-6.02.72-8.72.72c-8.35 0-14.29-1.8-17.85-5.41s-5.33-9.65-5.33-18.14z" fill="#0081c6"/><path d="M569.67 141.3c-8.7 0-15.05-1.96-18.86-5.83-3.81-3.86-5.74-10.3-5.74-19.13v-31.7h-14.65V64.68h14.65v-12.4l28.49-11.41v23.81h14.7v19.96h-14.7v25.6c0 3.38.63 5.72 1.88 6.96s3.61 1.88 7.03 1.88c.79 0 1.68-.03 2.63-.1.98-.07 2.02-.17 3.1-.3l1.6-.19v19.68l-1.07.28c-3.56.92-6.96 1.63-10.12 2.12-3.18.48-6.18.73-8.94.73zm-36.4-59.51h14.65v34.54c0 8.06 1.66 13.82 4.92 17.13 3.26 3.3 8.92 4.98 16.83 4.98 2.61 0 5.47-.24 8.5-.7 2.74-.42 5.69-1.02 8.77-1.79v-14.27c-.56.05-1.11.1-1.64.14-1.02.07-1.97.11-2.83.11-4.26 0-7.22-.89-9.04-2.71-1.83-1.82-2.71-4.76-2.71-8.98V81.79h14.7V67.53h-14.7V45.09l-22.79 9.12v13.33h-14.65v14.25zM595.21 138.16V37.23h25.96v41.95c3.06-4.33 6.5-7.6 10.3-9.79 3.81-2.19 7.99-3.28 12.55-3.28 8.45 0 14.88 2.58 19.27 7.73 4.39 5.16 6.59 12.68 6.59 22.58v41.74h-25.96v-40.1c0-4.83-.86-8.45-2.57-10.85-1.71-2.39-4.3-3.59-7.76-3.59-4.19 0-7.31 1.63-9.35 4.89s-3.06 8.22-3.06 14.88v34.76h-25.97z" fill="#0081c6"/><path d="M671.31 139.59h-28.82V98.06c0-4.51-.77-7.88-2.3-10.02-1.44-2.02-3.6-3-6.6-3-3.7 0-6.36 1.38-8.14 4.22-1.89 3.02-2.84 7.77-2.84 14.13v36.19h-28.82V35.81h28.82v39.23c2.5-2.89 5.24-5.2 8.17-6.88 4.01-2.31 8.47-3.47 13.26-3.47 8.85 0 15.7 2.77 20.35 8.23 4.6 5.4 6.93 13.31 6.93 23.51v43.16zm-25.97-2.85h23.12V96.42c0-9.5-2.1-16.79-6.25-21.66-4.09-4.8-10.21-7.23-18.18-7.23-4.28 0-8.26 1.04-11.83 3.09-3.61 2.07-6.92 5.23-9.85 9.37l-2.59 3.67v-45h-23.11v98.08h23.11V103.4c0-7 1.07-12.11 3.28-15.64 2.31-3.69 5.86-5.56 10.56-5.56 3.93 0 6.93 1.41 8.92 4.19 1.91 2.67 2.83 6.49 2.83 11.68v38.67z" fill="#0081c6"/><path d="M202.26 140.21c-.13-.44-.3-.91-.63-1.21-.34.29-.63.53-1.06.6-.57.1-.99-.31-1.49-.13-.79.29-1.03 1.45-2 1.46-1.25-.82-1.19-2.84-2.46-4.04-.83-.79-2.56-3.05-4.29-2l-.17-.63c-.41-.79-.8-2.43-1.84-2.67-.75-.17-1.12.33-1.84-.45-.36-.38-.74-1.08-.84-1.59-.81-.01-1.77-1.42-2.15-2.11-.34-.61-.46-1.17-1.11-1.55-.4-.24-.99-.14-1.11-.74-.05 0-.09-.01-.14-.03-.22-.79-.74-1.61-.78-2.46-.03-.67-.03-1.39.01-2.07.05-.92.86-1.08 1.09-1.87.41-1.41-2.32-1.72-2.17-3.17.11-1.09 1.72-1.92 2.26-2.81.3-.5.21-1.16.57-1.6.37-.48 1.05-.53 1.35-1.14.6-1.24-.01-2.72 1.36-3.61.64-.41 1.09-.53 1.58-1.07.38-.41.71-.8 1.22-1.08 1.24-.67 2.44-1.02 3.8-1.28 1.33-.26 2.49-.15 3.51-1.16.36-.36.42-.73 1.01-.81.51-.07.84.36 1.31.37.87.01.66-.92.87-1.67.25-.94.26-1.33.19-2.34-.08-1.06.49-.98 1.43-1.36.08-.68 1.02-1.09 1.45-1.59.55-.65 1.04-.91 1.64-1.37 1.39-1.06 2.42-2.11 4.04-2.89 1.12-.54 2.26-.79 3.31-1.42 1.14-.69 1.43-1.76 2.87-2.01.83-.14 3.44-.1 3.32-1.25-.1-1.03-2.38-2.02-1.98-3.1-.58-.55-1-1.07-1.66-1.59-1.94-1.54-3.04-3.96-4.91-5.65-.41-.37-1.06-.71-1.39-1.15-.37-.49-.23-1.22-.52-1.75-.72-1.29-1.42-1.76-2.77-1.95-1.06-.14-1.72-.63-1.97-1.74-.43-1.85.62-3.96-.09-5.75-.17-.43-.31-.44-.56-.79-.22-.32-.5-.27-.4-.64-.54-.3-1.49-.2-2.12-.11-.52.07-1.46.62-1.99.23-.58-.43-.5-3.06-.44-3.6.06-.69.44-1.15.57-1.81.2-1.04-.35-.65-.68-1.29-.33-.63 1.66-3.31.38-3.28.18-1.41 1.07-2.01 2.36-2.32 1.46-.35 2-1.23 1.99-2.74-.01-1.17.4-.78 1.12-1.34.54-.41.61-.92.37-1.57-.25-.66-.91-1.23-1.27-1.91-.27-.51-.38-1.02-.6-1.55-.23-.53-.41-1.03-.74-1.5-.39-.55-1.01-.89-.38-1.63.28-.33 1.09-.54 1.46-.85.48-.4.79-.62 1.31-.91 1.09-.59 1.82-1.4 2.62-2.35.61-.72 2.97-1.65.85-1.85-.18-1.13 1.98-1.47 2.61-1.98.77-.63 1.32-1.75 1.78-2.63.48-.91 1.03-2 1.13-3.08.08-.9.11-1 .59-1.74.35-.54.46-1 .48-1.64.38-.43 1.17-.63 1.48-1.1.56-.81.35-1.24 1.52-1.44l.11-.08c.46-1.78 3.24-1.94 4.82-.93 1.95 1.25 3.77 2.53 5.61 3.75 2.44 1.62 5.48 3.49 10.08 6.39 1.03.65 2.65 1.65 3.76 2.37.94.58 2.27 1.45 4.25 2.63 1.51.91 3.28 1.91 4.73 2.75 1.4.81 3.88 2.42 3.88 2.42s-.04 1.39-1.53 5.94c-.22.68-.37 1.15-.75 2.07-.6 1.11-1.13 2.56-1.68 3.67-.59 1.21-1.04 2.15-1.5 3.31-.26.65.23 1.04-.27 1.57-.5.52-1.61.72-2.12 1.15-.56.47-.68.93-.91 1.6-.19.52.13.55-.29 1.01-.19.21-.63.29-.86.47-.13-.04-.43-.23-.55-.35.32-1.52 2.09-2.79 2.03-4.36-1.52-1.15-2.63 2.4-3 3.24-.33.74-1.01 1.08-1.26 1.94-.22.79-.13 1.84-.27 2.64-.54.64-.91 1.69-1.53 2.51-1.02 1.34-1.31 1.86-2.5 2.01-.01.58 1.6 2.04 3.12 3.01.17.11.57.64.66.65.64.08.43-.3.9-.47.68-.24 1.84-.24 2.42-.46.39.25 2.37 1.15 3.23 1.57 1.05.52 2.16.84 3.22 1.4-.01-1.2-1-2.14-1.14-3.41 2.85-.91 1.95 8.36 1.63 9.78-.37 1.64-.66 3.23-1.12 4.85-.23.81-.56 1.51-.74 2.31-.9 4.02-1.39 8.3-1.9 12.45-.17 1.4-.25 9.38-1.73 9.91-.26-2.67.02-5.47.39-8.03.2-1.35.38-2.69.67-4.02.28-1.28.73-2.52.32-3.84-.57-.01-1.52.04-1.87.05 1-.14 1.43.25 2.25.66-.21 1.77-1.74 1.55-2.97 1.31 1.02.29.85 1.48-.18 1.52.75-.04.8.68.51 1.19.51.11.52.21.26.63.19.16.33.47.61.56-.63.28-1.51.37-2.27.23-.73-.13-1.7-.9-2.22-.06.35.29 1.14.78 1.59.88.6.13 1.75-.33 2.2.21.6.72-.36 1.18-.53 1.79-.19.68.39 1.68-.81 1.59-.18.44.72.52 1.05.81-.36.56-1.43 1.36-2.05 1.54.29 1.83-1.14 3.26-.99 5.05.41.38 2.13.69 1.46 1.9-.38.68-1.94.07-1.62 1.48-.52.08-1.03.37-1.27.89-.1.03-.09-.11-.18-.08-.84 1.16-.63 2.62-1.42 3.78-1.17-.44-3.86.59-3.18 2.13.1.23 1.13.76 1.4 1.2.5.8.58 1.33.56 2.35-.61-.22-1.12-.49-1.85-.42.29-1.44.14-1.53-1.26-1.86-.55-.13-.85-.25-1.33-.4-.57-.19-1.06-.55-1.51-.28.39.63.41 1.64.65 2.47.25.85 1.21 1.32 1.26 2.06-.48-.02-.87-.16-1.36-.17.47.27.91.78 1.04 1.26-.44.28-.36.81-.42 1.34-1.04.19-1.25-1.61-2.39-.86-.63.41-.75 1.53-1.52 2.01-.11.43-.2.84-.21 1.31l.57-.26c.62.23 1.39.13 1.23 1.14.87-.35 1.82-.44 1.76.89-1.13.5-2.29 1.01-3.23 1.92-.87.84-1.53 2.35-2.93 2.04.33-.45.62-.7.91-1.19.26-.44.32-1.01.63-1.49.63-.98 2.65-.97 2.96-1.78a4.22 4.22 0 01-.22-.14c-.67.33-1.33.8-2.06.91.08-.23.49-.85.39-1.08-.23-.58-.91-.66-1.31-.34-.45.35-.66 2.06-.26 2.23-.53.61-1.7-.53-1.47.73.77.08.39.9.14 1.09v.53c-.18-.94-1.67-.53-2.38-.65-.44-.07-.96-.33-1.42-.36-.39-.02-1.34.17-.39.47.13.17.01.38.01.38s-1.08.31-1.54.55c0 .22 1.89.21 2.86.34.39.66-.94 2.05.48 1.71.24-.06.6-.56.84-.69.42-.24.78-.33 1.26-.43-.87.67-1.61 1.22-2.19 2.19-.45.74-.54.94-1.17 1.42-.33.25-1.12.67-.72 1.04-.02.97-.93 2.47-1.47 3.36-.13.21-.32.71-.51.78-.44.19-.34-.1-.63-.1-.45.01-1.56-.23-1.84.06 1.69 1.33-1.56 1.15-1.73 1.98.52.95.53 1.39 1.81 1.28.03 1.05-.95 1.89-1.39 2.75.08-.26.1-.57.15-.84-.32-.24-.09-.37-.22-.73-.35-.1-.6-.34-.72-.68-1.36-.27-.79.92-.5 1.5.52 1.04.1.8-.96 1.18-.9.32-1.35.64-1.11 1.75.12.55.85 1.97-.43 1.94-.01-.25-.2-.47-.16-.76-.5-.14-.88.1-.84.6 1.29.26-.43.99-.86 1.07-.63.12-2.13.52-2.6.03-1.02-1.08.21-3.44.53-4.51.88-2.96 3.86-4.89 2.69-8.42-.91-2.75-5.76-1.37-5.82-1.91z" fill="#fdc58d"/><path d="M205.69 156.85c-.8 0-1.42-.23-1.86-.68-1.44-1.52-.56-3.86-.04-5.26.09-.25.18-.47.23-.65.36-1.21 1-2.25 1.57-3.16 1.08-1.74 1.66-2.8 1.13-4.4-.07-.22-.27-.82-2.48-.82-.28 0-.55.01-.79.02-.22.01-.43.01-.6.01-1.19 0-1.68-.48-1.89-.94l-.15.03c-.53.09-1.02-.02-1.32-.1-.04.05-.1.12-.15.18-.39.47-1.05 1.26-2.26 1.28h-.43l-.36-.24c-1.03-.67-1.44-1.71-1.8-2.63-.24-.62-.48-1.21-.86-1.57l-.45-.45c-.45-.46-1.38-1.43-1.92-1.43a.34.34 0 00-.2.07l-1.61.97-.64-2.31c-.09-.19-.18-.41-.28-.64-.14-.34-.43-1.05-.62-1.19-.01.03-.07.04-.13.04-.9.09-1.67-.15-2.35-.87-.35-.37-.69-.9-.92-1.44-1.04-.55-1.84-1.75-2.28-2.55-.09-.17-.17-.33-.25-.5-.19-.39-.23-.45-.34-.52.01.01-.04 0-.08-.01-.24-.07-.79-.22-1.22-.69l-.37-.08-.23-.82c-.07-.24-.17-.48-.27-.73-.24-.59-.52-1.26-.56-2.04-.03-.73-.03-1.49.01-2.21.05-1.04.61-1.63.95-1.98l.03-.03c-.1-.08-.22-.16-.32-.23-.71-.5-1.9-1.34-1.74-2.88.13-1.2 1.02-2.02 1.75-2.68.27-.25.6-.55.71-.72.02-.04.05-.21.08-.32.08-.39.2-.93.59-1.43.33-.42.72-.65 1.01-.81.08-.05.16-.08.23-.14.07-.17.1-.52.15-.92.1-.9.25-2.26 1.67-3.19.24-.16.46-.28.66-.39.34-.19.48-.27.65-.45l.12-.13c.38-.41.81-.88 1.48-1.24 1.26-.67 2.56-1.11 4.21-1.43.33-.06.66-.11.97-.15.92-.12 1.38-.2 1.81-.63.05-.05.08-.1.12-.15.24-.32.69-.93 1.71-1.05l.29-.02c.23 0 .44.03.62.08.02-.11.04-.22.08-.33.2-.73.2-.95.14-1.86-.14-1.85 1.09-2.35 1.78-2.59.3-.48.74-.82 1.07-1.08.13-.1.31-.24.36-.3.52-.61 1.01-.96 1.44-1.27.13-.1.27-.19.41-.3.36-.28.7-.55 1.03-.82.95-.77 1.93-1.58 3.25-2.22.54-.26 1.05-.45 1.55-.64.6-.22 1.16-.43 1.65-.72.28-.17.5-.4.76-.67.53-.55 1.25-1.29 2.6-1.52.19-.03.44-.06.74-.08.2-.02.52-.05.83-.09-.53-.5-1.31-1.25-1.45-2.21-.03-.04-.07-.07-.1-.11-.33-.34-.62-.63-.99-.93-1.18-.94-2.05-2.11-2.89-3.24-.68-.91-1.32-1.78-2.09-2.47-.11-.1-.26-.2-.41-.31-.39-.28-.82-.59-1.16-1.04-.41-.55-.5-1.14-.57-1.57-.02-.12-.05-.3-.07-.35-.51-.92-.84-1.1-1.72-1.22-2.15-.29-2.91-1.7-3.16-2.83-.25-1.09-.12-2.18 0-3.14.11-.91.22-1.77-.03-2.4-.13-.15-.23-.27-.35-.42-.12-.1-.23-.2-.32-.3h-.01c-.31 0-.63.04-.89.08-.09.02-.19.06-.31.09-.74.24-1.95.43-2.72-.13-1.3-.96-1.11-3.99-1.02-4.89.06-.59.25-1.04.4-1.41.04-.1.08-.19.11-.27-.16-.15-.33-.35-.47-.63-.41-.8-.11-1.63.26-2.51h-.21l.18-1.6c.23-1.84 1.39-3.03 3.43-3.53.66-.16.9-.32.9-1.35-.01-1.23.41-1.93 1.41-2.33.07-.03.12-.05.17-.08-.06-.16-.27-.43-.45-.66-.25-.32-.52-.67-.74-1.1-.21-.4-.34-.78-.45-1.11-.06-.18-.12-.36-.2-.54l-.12-.28c-.16-.39-.29-.69-.47-.95-.06-.08-.12-.15-.18-.22-.94-1.1-.98-2.16-.13-3.16.35-.42.84-.64 1.27-.84.14-.06.29-.12.39-.2.5-.41.88-.7 1.53-1.05.88-.47 1.5-1.16 2.21-2.01.16-.19.36-.37.57-.53l-.03-.18c-.3-1.88 1.62-2.67 2.54-3.06.2-.08.51-.21.6-.27.46-.38.92-1.26 1.29-1.96l.11-.21c.45-.86.9-1.76.97-2.55.11-1.14.21-1.45.81-2.38.18-.29.24-.49.25-.92l.02-.51.34-.38c.33-.38.74-.61 1.07-.8.12-.07.3-.17.35-.22.06-.1.13-.24.18-.36.27-.56.62-1.13 1.53-1.45.65-1.13 1.99-1.82 3.62-1.82 1.08 0 2.18.31 3.02.85 1.21.78 2.37 1.57 3.52 2.34.71.48 1.41.96 2.11 1.42 1.81 1.2 3.93 2.53 6.85 4.36l4.47 2.8c.85.53 1.78 1.11 2.51 1.58.28.17.63.39 1.04.65.82.52 1.85 1.17 3.17 1.96 1.1.66 2.34 1.37 3.49 2.03l1.23.71c1.41.83 3.84 2.4 3.94 2.46l.67.44-.02.8c-.01.27-.12 1.82-1.61 6.35l-.06.19c-.19.59-.36 1.1-.73 1.98l-.06.13c-.32.59-.63 1.32-.94 2.03-.24.56-.47 1.1-.71 1.59-.57 1.17-1 2.08-1.45 3.2.02-.05.02 0 .03.04.05.36.15 1.21-.6 2-.48.5-1.11.76-1.66.99-.2.08-.5.21-.59.27-.18.15-.22.25-.41.77l-.05.15c.02.44-.05.95-.59 1.54-.32.35-.71.51-.97.62-.05.02-.1.04-.14.06l-.57.46-.61-.26c-.34-.1-.73-.33-1-.56-.01.02-.01.03-.02.05-.08.29-.1.76-.12 1.2-.02.42-.04.86-.11 1.29l-.07.38-.25.3c-.18.21-.37.58-.58.96-.25.47-.53 1-.9 1.49l-.25.34c-.4.53-.75.99-1.17 1.36.44.39 1.01.84 1.67 1.26.05.03.1.07.15.11.06-.03.12-.05.18-.07.48-.17 1.01-.24 1.53-.3.28-.04.7-.09.83-.14l.68-.26.61.39c.21.13 1.24.62 1.86.91.47.22.92.43 1.22.58.05.02.1.05.15.07-.05-.21-.1-.43-.12-.66l-.12-1.16 1.11-.35c1.02-.33 2.05-.01 2.72.82 2.06 2.58.75 10.55.73 10.62-.11.49-.21.96-.31 1.44-.24 1.13-.49 2.3-.83 3.48-.11.38-.23.74-.36 1.09-.14.4-.27.77-.36 1.14-.82 3.67-1.3 7.62-1.76 11.44l-.02.19.78.25-.85.38-.01.07c-.03.27-.06.79-.1 1.46-.34 6.14-.8 8.99-2.57 9.62l-1.72.61-.18-1.81c-.08-.76-.11-1.53-.11-2.29-.02.02-.05.03-.07.04-.07.86-.35 1.62-.6 2.27-.15.39-.28.75-.36 1.09.54.29 1.2.74 1.46 1.56.13.41.2 1.07-.23 1.84-.35.62-.9.88-1.35 1.01l.21.9-1.5.29c-.12.02-.19.07-.21.08l-.28.61-.3.08c-.09.26-.16.56-.23.88-.17.72-.35 1.54-.89 2.33l-.63.93-1.05-.4s-.03-.01-.14-.01c-.34 0-.7.12-.95.25.38.28.77.59 1.03 1 .68 1.1.8 1.92.77 3.13l-.04 2-2.19-.81c-.38-.15-.59-.22-.81-.22l-1.07.1c.03.13.05.26.06.4l.09 1.56-.25-.01.07.26-.62.39v.06l-.03.41-.12 1.05-1.04.19c-.97.18-1.65-.29-2.07-.68-.07.14-.16.3-.25.46.3.14.52.32.7.51.81 0 1.33.36 1.61.66.45.48.66 1.13.62 1.95l-.04.88-.81.35c-1.06.46-2.05.9-2.81 1.64-.18.18-.35.39-.52.6-.68.84-1.7 2.03-3.33 1.87l.22.47c-.85.66-1.41 1.09-1.84 1.79l-.11.18c-.42.7-.66 1.07-1.43 1.64-.05.04-.1.07-.16.11-.1 1.19-.86 2.55-1.64 3.84l-.09.17c-.21.42-.5.99-1.14 1.25-.42.18-.88.22-1.28.09-.07.13-.15.25-.25.35l.04 1.41c.03 1.19-.63 2.12-1.12 2.79-.16.22-.32.44-.43.65l-.95-.39c-.02.11-.06.21-.11.32-.34.75-1.06.93-1.48 1.04-.14.04-.31.08-.5.15-.08.03-.14.05-.19.07v.02c.01.06.04.13.07.22.21.65.57 1.73-.1 2.64-.2.28-.66.74-1.52.81-.74.65-1.85.88-1.87.89l-.25.05c-.48.13-1.15.26-1.78.26zm-1.45-17.81c1.05 0 4.27 0 5.19 2.77.97 2.93-.35 5.07-1.41 6.79-.52.84-1.01 1.63-1.26 2.48-.07.23-.18.52-.29.83-.15.41-.57 1.52-.58 2.08.32-.03.71-.11 1-.17h.02c.04-.45.22-.85.51-1.17.23-.25.53-.43.86-.53-.19-1.91 1.25-2.58 1.94-2.83-.21-.59-.32-1.32.09-1.99.23-.37.57-.63.99-.76l-.11-.2.11-.52c.15-.72.66-1.13 1.2-1.39l-.2-.16 1.11-1.13c.56-.57 1.36-.57 1.62-.57.28 0 .59.03.87.06.11.01.21.02.29.03.32-.53 1.02-1.69 1.21-2.37-.05-.18-.08-.38-.06-.57.06-.93.81-1.45 1.26-1.76l.13-.09c.23-.17.32-.24.44-.42-.04-.04-.07-.09-.1-.13-.29-.4-.34-.83-.31-1.2-1.36-.09-2.69-.24-2.67-1.66l.01-.84.74-.4c.11-.06.25-.12.39-.18.15-.86.97-1.39 2.14-1.39h.13c.44.02.85.15 1.18.26.13.04.27.09.39.11.05.01.09.01.15.01l.31-.01h.12c.02-.32.12-.69.4-1.02.15-.18.45-.45.93-.56.09-.74.37-1.6.98-2.08.24-.19.53-.33.83-.41.05-.29.11-.54.17-.76l.14-.54.48-.3c.08-.06.24-.37.34-.55.24-.46.55-1.04 1.15-1.44.71-.47 1.53-.5 2.11-.26l.08-.29c-.31-.36-.71-.84-.91-1.51-.1-.35-.17-.72-.23-1.09-.06-.36-.15-.85-.26-1.02l-.78-1.24 1.25-.75c.33-.2.7-.3 1.09-.3.53 0 .96.18 1.3.33.1.04.2.09.31.12l.31.1c.07.02.13.04.2.07-.03-.54.11-1.09.42-1.57.74-1.14 2.25-1.7 3.42-1.76.06-.2.11-.42.16-.64.17-.76.37-1.62.97-2.45l.27-.38.33-.11c.19-.19.4-.35.63-.49.05-.17.13-.33.22-.48.18-.28.4-.48.64-.62a2.34 2.34 0 01-.31-.24l-.4-.38-.05-.55c-.1-1.17.27-2.15.59-3.02.27-.72.5-1.34.41-1.93l-.19-1.24 1.2-.35c.04-.01.1-.04.15-.07-.24-.43-.28-.95-.08-1.44l.39-.97.28.02c.01-.16.04-.33.09-.51.02-.05.03-.11.05-.16-.24 0-.45-.01-.65-.06-.82-.18-1.84-.87-2.2-1.18l-.93-.79.63-1.04a2.16 2.16 0 011.88-1.07c.54 0 1.02.18 1.41.33l.3-.58c-.03.07-.04.27.09.49.04.07.09.13.14.18l.06-.1a.49.49 0 00-.03.13l.05.05c.15.01.31.01.46 0l-.06-1.35c-.03 0-.05-.01-.08-.01l.06-.32-.02-.4.01-.06-.02-.52h.14l.36-1.5c.14.03.29.06.43.08l-.19-2.06c.3-.04.56-.05.8-.04h.01c.37-.01.8-.03 1.15-.03.27-1.81.59-3.61.98-5.36.12-.54.29-1.02.46-1.48.11-.29.21-.59.3-.91.31-1.09.54-2.17.78-3.3.1-.49.21-.98.32-1.47.22-1 .38-2.96.36-4.72l-.13-.07c-.5-.27-1.03-.48-1.6-.7-.53-.21-1.06-.42-1.58-.68-.29-.15-.72-.35-1.17-.56-.73-.34-1.25-.59-1.61-.77-.25.05-.52.08-.79.12-.26.03-.56.07-.78.12-.23.26-.66.61-1.39.61-.1 0-.22-.01-.35-.02-.56-.07-.88-.42-1.19-.77-.05-.05-.09-.11-.14-.15-.96-.62-3.71-2.55-3.69-4.18l.02-1.25 1.24-.15c.46-.05.48-.06 1.27-1.11l.26-.35c.23-.31.45-.71.66-1.11.2-.37.4-.75.64-1.1.02-.2.03-.41.04-.62.03-.58.06-1.23.23-1.84.22-.79.66-1.29.97-1.66.16-.19.29-.34.35-.47.04-.1.1-.23.16-.39.58-1.47 1.55-3.93 3.55-3.93.51 0 1.02.18 1.46.52l.54.41.01.37c.02-.01.05-.02.07-.03-.03-.34-.02-.76.17-1.22.48-1.22.94-2.18 1.54-3.41.22-.45.43-.95.65-1.46.32-.75.65-1.51 1.02-2.2.31-.74.44-1.15.62-1.71l.06-.2c.82-2.49 1.18-3.99 1.34-4.79-.84-.54-2.17-1.38-3.05-1.89l-1.22-.71c-1.16-.67-2.41-1.39-3.53-2.06-1.35-.8-2.4-1.47-3.23-2-.39-.25-.73-.46-1.03-.65-.74-.48-1.66-1.05-2.5-1.57l-4.47-2.81c-2.94-1.85-5.07-3.18-6.91-4.4-.71-.47-1.42-.96-2.14-1.44-1.12-.76-2.26-1.54-3.45-2.3-.39-.25-.94-.4-1.49-.4-.51 0-1.1.15-1.19.48l-.14.53-.82.55-.3.05c-.05.01-.09.02-.13.02-.01.01-.01.03-.02.04-.11.22-.24.48-.44.78-.35.52-.85.8-1.24 1.03-.02.01-.04.02-.05.03-.1.6-.3 1.11-.64 1.64-.31.49-.31.49-.37 1.11-.12 1.31-.73 2.55-1.29 3.61l-.11.21c-.49.93-1.1 2.1-2.03 2.86-.36.3-.81.48-1.29.68-.01 0-.01.01-.02.01.02.04.03.09.04.13.31 1.19-.7 1.89-1.44 2.4-.18.13-.49.34-.58.43-.84 1-1.71 1.96-3.03 2.67-.41.22-.63.38-1.08.75-.27.23-.58.38-.87.52.01.02.02.03.03.05.36.51.57 1 .78 1.49l.11.26c.11.26.19.5.28.74.09.27.17.5.28.71.1.2.28.43.46.66.31.4.66.85.87 1.41.48 1.26.18 2.43-.83 3.2-.21.16-.4.27-.57.36-.04 2.15-1.07 3.49-3.07 3.98-.55.13-.86.29-1.03.47.46.89.03 1.92-.35 2.83-.05.11-.11.25-.16.38.55.5.72 1.17.55 2.08-.09.45-.24.81-.36 1.1-.11.27-.18.43-.19.58-.05.49-.04 1.41.02 2.04.26-.08.53-.17.82-.21.34-.05.8-.1 1.27-.1.7 0 1.27.12 1.73.38l.97.54-.13.48c.01.01.02.03.03.04.04.06.08.1.11.13.2.22.42.47.61.96.52 1.3.35 2.63.21 3.8-.1.8-.19 1.55-.05 2.15.09.42.18.57.77.65 1.83.25 2.91 1 3.83 2.67.26.47.33.94.39 1.3.02.12.04.29.07.35.04.04.32.24.51.38.24.17.47.34.66.51.98.89 1.73 1.91 2.46 2.89.77 1.03 1.49 2 2.38 2.71.51.41.89.79 1.26 1.17.16.17.33.34.51.51l.68.65-.22.57c.14.16.36.37.51.51.63.59 1.34 1.27 1.44 2.25.06.55-.11 1.09-.46 1.52-.8.97-2.31 1.11-3.52 1.21-.21.02-.39.03-.53.05-.4.07-.57.23-1.02.69-.33.34-.75.77-1.35 1.13-.72.43-1.44.7-2.13.95-.43.16-.87.32-1.3.53-1.03.5-1.8 1.13-2.7 1.86-.35.29-.71.58-1.09.87-.17.13-.33.25-.49.36-.37.27-.64.46-.93.8-.24.29-.53.51-.78.7-.11.09-.27.21-.36.29l-.08.67-.79.32c-.19.08-.36.14-.52.19.05.98.02 1.53-.26 2.56-.04.14-.05.28-.07.41-.18 1.53-.91 2.31-2.16 2.31-.46 0-.82-.14-1.08-.26-.07.09-.16.19-.25.28-1.13 1.11-2.36 1.28-3.43 1.42-.26.04-.53.07-.81.12-1.38.26-2.4.6-3.4 1.14-.24.13-.45.35-.73.66l-.12.13c-.49.53-.96.79-1.37 1.02-.15.08-.31.17-.48.28-.25.16-.3.31-.39 1.11-.06.55-.13 1.24-.47 1.93-.36.74-.95 1.08-1.31 1.29-.08.04-.16.08-.22.14.04-.03.01.12-.02.23-.07.32-.16.77-.43 1.21-.32.52-.78.94-1.22 1.35-.23.21-.6.55-.76.77.13.11.33.25.48.36.67.48 2.07 1.47 1.57 3.16-.2.68-.6 1.1-.87 1.38-.07.07-.16.17-.18.21-.01.59-.02 1.25.01 1.89.01.28.18.69.35 1.08.02.04.03.08.05.11l.33.03.1.6c.16.05.34.12.52.23.86.51 1.2 1.21 1.45 1.73.05.11.11.23.18.35.37.67.83 1.21 1.06 1.38l1 .01.23 1.13c.05.24.29.7.47.89.36-.04.76-.04 1.14.05 1.51.35 2.13 1.85 2.54 2.85l.06.15h.03c1.76 0 3.15 1.44 3.98 2.31.13.14.25.26.35.36.84.79 1.23 1.79 1.55 2.59.08.2.15.39.23.56.29-.32.67-.68 1.22-.88.59-.21 1.27-.09 1.64.02.06.02.12.04.18.05-.02-.01.17-.17.3-.28l.95-.8.93.83c.37.33.61.73.79 1.12.26.07.56.06.87.06zm26.8-17.67c.01.05.03.1.04.16.03.09.22.31.36.47l.24.27.09-.58.03-.14c-.08-.02-.16-.04-.21-.05-.22-.04-.39-.08-.55-.13z" fill="#f78e1e"/><path d="M235.45 121.8c.26-.43.54-.84.79-1.28.28-.49.44-1 .76-1.44.3-.42.35-.9.59-1.36.26-.5.55-.99.9-1.45.52-.67 1.16-1.29 1.03-2.21-.04-.28-.16-.25.08-.43.16-.12.4-.13.57-.22.41-.2.63-.46.81-.88-.1-.18.53-1.19.63-1.49.16-.53.24-1.01.57-1.48.4-.58.37-.99.64-1.62.26-.59.56-.81.45-.02-.08.54-.13.96-.25 1.53-.12.55-.35 1.13-.57 1.65-.47 1.09-1.08 2.21-1.71 3.25-.28.48-.58 1.01-.81 1.51-.31.68-.46 1.31-.89 1.87-.76.96-1.39 2.17-1.97 3.22-.36.65-.73 1.65-1.42 2.04-.38.23-.93.18-.8-.4.06-.28.42-.71.54-.79" fill="#fdc893"/><path d="M235.22 124.57c-.4 0-.79-.12-1.11-.35-.59-.43-.85-1.15-.68-1.93.14-.6.62-1.23.98-1.55l.09-.14c.16-.25.32-.51.47-.77.1-.17.17-.34.25-.5.15-.33.33-.7.59-1.08.06-.08.11-.24.17-.41.09-.26.19-.52.32-.78.34-.66.67-1.18 1.03-1.66l.25-.31c.32-.39.52-.66.5-.82-.13-.33-.24-1.14.65-1.8.31-.23.62-.32.81-.37.02-.01.03-.01.04-.02.09-.38.29-.77.49-1.16.07-.14.14-.27.18-.36l.07-.25c.12-.45.28-1.01.68-1.58.1-.15.13-.24.21-.53.07-.26.15-.53.29-.85.67-1.55 1.71-1.45 2.11-1.34.31.09 1.31.5 1.09 2.1l-.04.32c-.06.44-.12.84-.23 1.33-.13.56-.34 1.19-.66 1.91a28.56 28.56 0 01-1.8 3.42c-.22.38-.52.89-.73 1.36-.08.18-.15.36-.22.53-.2.51-.42 1.08-.86 1.64-.59.75-1.11 1.69-1.61 2.6l-.23.42c-.06.12-.13.25-.2.38-.36.71-.84 1.69-1.76 2.22-.35.22-.75.33-1.14.33zm.11-2.84l.85 1.28c.02-.01.04-.03.06-.04 0-.02.01-.04.01-.06.04-.2 0-.47-.15-.71z" fill="#f78e1e"/><path d="M231.72 125.85c.37-.25.77-.43 1.13-.69.18-.13.35-.29.45-.5.12-.23.06-.57.23-.74.44-.42 1.17-.15 1.02.51-.07.32-.39 1.01-.66 1.23-.32.28-.93.19-1.31.33-.21.08-1.14.46-1-.05.06-.02.1-.07.16-.08" fill="#fdc893"/><path d="M231.8 127.63c-.39 0-.79-.11-1.14-.43-.45-.41-.62-1.03-.46-1.65l.2-.77.56-.18c.19-.13.38-.24.58-.35.15-.08.3-.16.44-.26.06-.33.18-.76.56-1.13.67-.65 1.7-.79 2.49-.35.78.44 1.15 1.31.94 2.21-.09.4-.5 1.48-1.13 2.01-.52.46-1.15.52-1.57.57-.08.01-.15.01-.22.03-.29.13-.76.3-1.25.3z" fill="#f78e1e"/><path d="M231.35 127.8c.14-.16.37-.3.52-.47.15-.18.18-.39.31-.58.22-.3 1.32-.65 1.06.11-.13.38-.68.97-.96 1.24-.38.35-.75.72-1.18 1.03-.22.16-.53.32-.83.26-.38-.08-.31-.37-.05-.58.41-.33.77-.73 1.17-1.05" fill="#fdc893"/><path d="M230.4 130.85c-.14 0-.28-.01-.42-.04-.7-.14-1.21-.61-1.37-1.26-.16-.67.11-1.38.71-1.86.17-.14.33-.29.5-.45.2-.19.4-.38.61-.56.09-.08.18-.16.28-.24l.02-.02c.07-.16.15-.33.28-.51.5-.67 1.81-1.27 2.82-.74.64.34 1.13 1.14.78 2.17-.26.74-1.02 1.52-1.33 1.82l-.19.18c-.35.33-.7.66-1.14.98-.53.35-1.04.53-1.55.53z" fill="#f78e1e"/><path d="M214.39 147.4c.38-.45-.25-1.12-.08-1.57.14-.39.77-.71 1.11-.88.39-.19 1.32-.34 1.06.41-.17.5-.55 1.03-.76 1.51-.29.68-.67 1.35-.99 2-.27.55-.74 1.42-1.46 1.33-.32-.56.22-1.08.48-1.55.11-.2.27-.43.35-.65.08-.23.06-.46.31-.63" fill="#fdc893"/><path d="M213.4 151.65c-.09 0-.18-.01-.28-.02l-.73-.08-.36-.64c-.69-1.22.04-2.3.35-2.76.05-.07.1-.14.14-.21l.13-.23c.04-.07.09-.14.12-.21.03-.14.08-.38.22-.65-.12-.37-.26-.92-.03-1.54.31-.85 1.15-1.34 1.84-1.68.58-.28 1.77-.56 2.6.16.55.49.73 1.24.47 2.01-.14.42-.35.8-.54 1.14-.09.17-.19.33-.26.49-.22.5-.47 1-.73 1.49l-.29.58c-.28.55-1.07 2.15-2.65 2.15z" fill="#f78e1e"/><path d="M212.15 151.25c.58-.61-.1-.54-.03-1 .14-.06.3-.04.45-.05.11.19.09.34.16.54.09.26.3.2.42.4.21.34-.56.65-.77.9-.25.3-.47.61-.78.86-.18.14-.34.25-.57.29-.21.03-.45-.13-.62.01.2-.45.41-.76.48-1.25.1-.66.49-.6 1.09-.63z" fill="#fdc893"/><path d="M210.97 154.64c-.16 0-.32-.02-.48-.05h.09c.27 0 .55-.1.76-.29l-2.26-1.69c.06-.13.12-.25.17-.36.12-.25.18-.37.2-.51.12-.83.53-1.38 1.22-1.66v-.04l.11-.78.72-.33c.35-.16.66-.18.9-.18h.83l.57.72c.1.18.17.35.21.49.12.1.24.24.35.41.26.42.71 1.52-.86 2.6l-.09.06-.11.13c-.21.26-.47.57-.82.86-.24.19-.65.5-1.27.59z" fill="#f78e1e"/><g fill="#0081c6"><path d="M20.28 188.66v-31.04h9.5l10.17 20.84v-20.84h7.21v31.04h-9.85l-9.84-20.9v20.9z"/><path d="M47.48 188.98H37.11l-.09-.18-9.22-19.6v19.78h-7.83V157.3h10.02l9.65 19.77V157.3h7.85v31.68zm-9.97-.64h9.33v-30.4h-6.56v20.51l-.61.14-10.08-20.65H20.6v30.4h6.55v-20.58l.61-.14zM56.37 179.82v.48c0 1.42.27 2.47.82 3.17.55.69 1.38 1.04 2.51 1.04.91 0 1.63-.24 2.14-.72.52-.49.83-1.21.94-2.16h6.57c-.1 2.43-1.03 4.31-2.8 5.66-1.76 1.35-4.2 2.02-7.3 2.02-3.54 0-6.13-.91-7.77-2.72s-2.46-4.66-2.46-8.54c0-3.76.92-6.63 2.77-8.62 1.84-1.98 4.51-2.98 8-2.98 3.22 0 5.63 1.04 7.23 3.11 1.6 2.08 2.39 5.21 2.39 9.39v.86H56.37zm6.59-4.57v-.29c0-1.21-.28-2.13-.83-2.78s-1.35-.97-2.38-.97c-1.07 0-1.91.33-2.5.99s-.89 1.59-.89 2.8v.25z"/><path d="M59.26 189.63c-3.62 0-6.31-.95-8.01-2.82-1.69-1.86-2.55-4.81-2.55-8.76 0-3.83.96-6.8 2.85-8.84 1.9-2.04 4.67-3.08 8.23-3.08 3.31 0 5.83 1.09 7.48 3.24 1.63 2.13 2.46 5.35 2.46 9.58v1.19H56.69v.16c0 1.34.25 2.34.75 2.97.49.62 1.23.92 2.26.92.84 0 1.47-.21 1.92-.64.46-.43.74-1.09.84-1.96l.03-.28h7.19l-.01.34c-.11 2.52-1.09 4.5-2.92 5.9-1.82 1.38-4.34 2.08-7.49 2.08zm.53-22.85c-3.38 0-5.99.97-7.76 2.87-1.78 1.92-2.68 4.74-2.68 8.4 0 3.79.8 6.59 2.38 8.33 1.57 1.73 4.11 2.61 7.53 2.61 3.01 0 5.4-.66 7.1-1.96 1.59-1.22 2.48-2.93 2.65-5.08h-5.95c-.15.89-.48 1.59-1 2.07-.58.54-1.37.81-2.36.81-1.22 0-2.15-.39-2.76-1.16-.59-.75-.89-1.88-.89-3.37v-.8h13.04v-.54c0-4.09-.78-7.18-2.33-9.19-1.52-1.99-3.87-2.99-6.97-2.99zm3.5 8.79h-7.24V175c0-1.28.33-2.3.97-3.01.66-.73 1.58-1.09 2.74-1.09 1.13 0 2.01.36 2.62 1.08.6.7.91 1.71.91 2.99zm-6.6-.64h5.95c0-1.11-.26-1.97-.75-2.54-.49-.58-1.19-.85-2.14-.85-.99 0-1.73.29-2.26.88-.52.58-.79 1.42-.8 2.51zM74.85 188.66l-6.17-21.63h7.28l3.38 13.09 3.75-13.09h7.92l3.57 13.09 3.42-13.1h6.11l-6.29 21.63h-7.4l-4.01-14.14-4.09 14.14h-7.47z"/><path d="M98.06 188.98h-7.89l-3.77-13.3-3.84 13.3H74.6l-6.36-22.28h7.96l3.14 12.19 3.5-12.19h8.41l3.32 12.16 3.18-12.16h6.79zm-7.4-.64h6.92l6.11-20.99h-5.43l-3.66 14.01-3.82-14.01h-7.43l-4.01 13.99-3.61-13.99H69.1l5.99 20.99h6.98l4.33-14.99zM128.33 176.03v-18.41h7.63v18.41c0 4.5-.94 7.82-2.8 9.95-1.87 2.13-4.79 3.2-8.75 3.2-3.22 0-5.64-.92-7.26-2.76s-2.43-4.59-2.43-8.25v-.82h7.36v.36c0 1.8.24 3.12.73 3.98s1.24 1.28 2.25 1.28c1.21 0 2.05-.5 2.54-1.5s.73-2.82.73-5.44z"/><path d="M124.41 189.5c-3.3 0-5.83-.96-7.5-2.87-1.66-1.89-2.5-4.74-2.5-8.46v-1.14h8v.68c0 1.73.23 3.02.69 3.82.43.75 1.07 1.12 1.97 1.12 1.08 0 1.82-.43 2.25-1.32.46-.95.7-2.74.7-5.3v-18.74h8.27v18.74c0 4.56-.97 7.98-2.88 10.17-1.93 2.19-4.96 3.3-9 3.3zm-9.36-11.82v.5c0 3.56.79 6.27 2.35 8.04 1.54 1.76 3.91 2.65 7.02 2.65 3.85 0 6.71-1.04 8.51-3.09 1.81-2.06 2.73-5.34 2.73-9.74v-18.09h-6.99v18.09c0 2.7-.25 4.52-.76 5.58-.54 1.12-1.49 1.69-2.83 1.69-1.13 0-1.98-.49-2.53-1.45-.52-.91-.77-2.27-.77-4.14v-.04zM145.2 179.82v.48c0 1.42.27 2.47.82 3.17.55.69 1.38 1.04 2.51 1.04.91 0 1.63-.24 2.14-.72.52-.49.83-1.21.94-2.16h6.57c-.1 2.43-1.03 4.31-2.8 5.66-1.76 1.35-4.2 2.02-7.3 2.02-3.54 0-6.13-.91-7.77-2.72s-2.46-4.66-2.46-8.54c0-3.76.92-6.63 2.77-8.62 1.84-1.98 4.51-2.98 8-2.98 3.22 0 5.63 1.04 7.23 3.11 1.6 2.08 2.39 5.21 2.39 9.39v.86H145.2zm6.6-4.57v-.29c0-1.21-.28-2.13-.83-2.78s-1.35-.97-2.38-.97c-1.07 0-1.91.33-2.5.99s-.89 1.59-.89 2.8v.25z"/><path d="M148.09 189.63c-3.62 0-6.31-.95-8.01-2.82-1.69-1.86-2.55-4.81-2.55-8.76 0-3.83.96-6.8 2.85-8.84 1.9-2.04 4.67-3.08 8.23-3.08 3.31 0 5.83 1.09 7.48 3.24 1.63 2.13 2.46 5.35 2.46 9.58v1.19h-13.04v.16c0 1.34.25 2.34.75 2.97.49.62 1.23.92 2.26.92.84 0 1.47-.21 1.92-.64.46-.43.74-1.09.84-1.96l.03-.28h7.19l-.01.34c-.11 2.52-1.09 4.5-2.92 5.9-1.8 1.38-4.32 2.08-7.48 2.08zm.53-22.85c-3.38 0-5.99.97-7.76 2.87-1.78 1.92-2.68 4.74-2.68 8.4 0 3.79.8 6.59 2.38 8.33 1.57 1.73 4.11 2.61 7.53 2.61 3.01 0 5.4-.66 7.1-1.96 1.59-1.22 2.48-2.93 2.65-5.08h-5.95c-.15.89-.48 1.59-1 2.07-.58.54-1.37.81-2.36.81-1.22 0-2.15-.39-2.76-1.16-.59-.75-.89-1.88-.89-3.37v-.8h13.04v-.54c0-4.09-.78-7.18-2.33-9.19-1.52-1.99-3.87-2.99-6.97-2.99zm3.5 8.79h-7.24V175c0-1.28.33-2.3.97-3.01.66-.73 1.58-1.09 2.74-1.09 1.13 0 2.01.36 2.62 1.08.6.7.91 1.71.91 2.99zm-6.6-.64h5.95c0-1.11-.26-1.97-.75-2.54-.49-.58-1.19-.85-2.14-.85-.99 0-1.73.29-2.26.88-.52.58-.79 1.42-.8 2.51zM160.95 188.7v-18.01c0-.79-.02-1.48-.07-2.09s-.11-1.12-.19-1.53h7.19c.1.49.18 1.03.22 1.62.05.59.07 1.21.07 1.87.67-1.4 1.46-2.43 2.38-3.08s2.02-.98 3.32-.98c.22 0 .4 0 .52.01s.24.03.35.05v7.18c-.32-.04-.63-.07-.93-.09-.29-.02-.57-.03-.82-.03-1.79 0-3.05.49-3.77 1.47s-1.08 2.72-1.08 5.22v8.4h-7.19z"/><path d="M168.46 189.02h-7.83v-18.33c0-.78-.02-1.47-.07-2.07-.04-.59-.11-1.09-.18-1.49l-.08-.38h7.84l.05.26c.1.51.18 1.07.23 1.66.02.22.03.45.04.68.56-.92 1.2-1.63 1.9-2.12.97-.69 2.15-1.04 3.51-1.04.23 0 .41 0 .53.01.15.01.28.03.41.06l.24.06v7.79l-.36-.05c-.32-.04-.62-.07-.91-.09s-.55-.03-.8-.03c-1.68 0-2.86.45-3.51 1.34-.68.92-1.02 2.61-1.02 5.03v8.71zm-7.19-.64h6.55v-8.08c0-2.59.37-4.36 1.14-5.41.78-1.07 2.14-1.61 4.03-1.61.26 0 .54.01.85.03.19.01.38.03.58.05v-6.54h-.05c-.11-.01-.28-.01-.49-.01-1.22 0-2.28.31-3.13.92-.87.61-1.63 1.61-2.28 2.96l-.61-.14c0-.65-.02-1.27-.07-1.84-.04-.47-.09-.92-.17-1.33h-6.54c.05.34.1.74.13 1.18.05.61.07 1.33.07 2.12v17.7zM182.52 181.12v.21c0 1.07.23 1.83.68 2.3.46.47 1.22.71 2.28.71.83 0 1.47-.16 1.92-.48s.67-.79.67-1.41c0-.52-.16-.92-.48-1.21s-.96-.56-1.92-.81c-.43-.11-1.05-.27-1.87-.46-2.66-.63-4.49-1.37-5.5-2.21-.56-.46-.99-1.08-1.29-1.85s-.46-1.63-.46-2.59c0-2.3.8-4.04 2.39-5.22 1.6-1.18 3.95-1.77 7.06-1.77 2.84 0 4.96.59 6.35 1.76 1.4 1.17 2.1 2.94 2.11 5.31h-6.49c-.02-.91-.23-1.56-.62-1.94s-1.07-.57-2.04-.57c-.59 0-1.05.14-1.38.42s-.49.67-.49 1.18c0 .49.18.89.54 1.19s1.18.65 2.46 1.04c.45.14 1.06.33 1.85.57 2.16.63 3.53 1.13 4.12 1.51.98.62 1.7 1.33 2.14 2.14.45.81.67 1.77.67 2.89 0 2.41-.83 4.24-2.49 5.48s-4.1 1.86-7.32 1.86c-3.18 0-5.51-.64-6.99-1.93-1.47-1.28-2.21-3.3-2.21-6.05v-.08h6.31z"/><path d="M185.43 189.5c-3.25 0-5.67-.67-7.2-2-1.54-1.34-2.32-3.46-2.32-6.29v-.4h6.94v.53c0 .98.2 1.67.59 2.08.39.4 1.08.61 2.05.61.76 0 1.34-.14 1.73-.42.36-.26.54-.64.54-1.15 0-.43-.12-.75-.37-.97-.19-.17-.66-.44-1.79-.74-.43-.11-1.05-.27-1.86-.46-2.69-.64-4.58-1.4-5.63-2.27-.6-.5-1.06-1.16-1.39-1.98-.32-.8-.48-1.71-.48-2.71 0-2.4.85-4.24 2.52-5.48 1.64-1.21 4.08-1.83 7.25-1.83 2.9 0 5.11.62 6.56 1.83 1.47 1.23 2.22 3.1 2.23 5.56v.32h-7.13l-.01-.31c-.02-.82-.19-1.4-.52-1.71-.33-.32-.94-.48-1.82-.48-.51 0-.9.12-1.17.34-.26.22-.38.52-.38.93 0 .4.14.7.42.94.22.19.81.51 2.34.98.45.14 1.06.33 1.85.57 2.21.65 3.58 1.15 4.2 1.55 1.02.64 1.78 1.4 2.25 2.25s.71 1.88.71 3.05c0 2.51-.88 4.44-2.61 5.74-1.7 1.28-4.22 1.92-7.5 1.92zm-8.88-8.06c.04 2.52.75 4.39 2.1 5.57 1.41 1.23 3.69 1.85 6.77 1.85 3.14 0 5.53-.61 7.13-1.8 1.59-1.19 2.36-2.9 2.36-5.22 0-1.06-.21-1.98-.63-2.74-.42-.75-1.1-1.43-2.03-2.02-.56-.36-1.92-.86-4.04-1.48-.79-.24-1.41-.43-1.86-.57-1.33-.41-2.17-.77-2.57-1.1-.43-.36-.65-.84-.65-1.43 0-.6.2-1.08.61-1.42.39-.33.92-.5 1.58-.5 1.07 0 1.81.22 2.27.66.41.4.64 1 .7 1.84h5.86c-.07-2.1-.74-3.7-1.99-4.75-1.33-1.12-3.4-1.68-6.15-1.68-3.03 0-5.34.57-6.87 1.71-1.5 1.11-2.26 2.78-2.26 4.96 0 .91.15 1.74.43 2.47.28.72.69 1.3 1.2 1.72.97.81 2.78 1.53 5.37 2.14.82.2 1.45.35 1.88.47 1.02.27 1.69.55 2.06.88.39.35.59.84.59 1.45 0 .72-.27 1.29-.8 1.67-.5.37-1.19.54-2.1.54-1.17 0-1.99-.26-2.51-.8-.5-.51-.76-1.32-.77-2.42zM204.47 179.82v.48c0 1.42.27 2.47.82 3.17.55.69 1.38 1.04 2.51 1.04.91 0 1.63-.24 2.14-.72.52-.49.83-1.21.94-2.16h6.57c-.1 2.43-1.03 4.31-2.8 5.66-1.76 1.35-4.2 2.02-7.3 2.02-3.54 0-6.13-.91-7.77-2.72s-2.46-4.66-2.46-8.54c0-3.76.92-6.63 2.77-8.62 1.84-1.98 4.51-2.98 8-2.98 3.22 0 5.63 1.04 7.23 3.11 1.6 2.08 2.39 5.21 2.39 9.39v.86h-13.04zm6.6-4.57v-.29c0-1.21-.28-2.13-.83-2.78s-1.35-.97-2.38-.97c-1.07 0-1.91.33-2.5.99s-.89 1.59-.89 2.8v.25z"/><path d="M207.36 189.63c-3.61 0-6.31-.95-8.01-2.82-1.69-1.86-2.55-4.81-2.55-8.76 0-3.83.96-6.8 2.85-8.84 1.9-2.04 4.67-3.08 8.23-3.08 3.31 0 5.83 1.09 7.48 3.24 1.63 2.13 2.46 5.35 2.46 9.58v1.19H204.8v.16c0 1.34.25 2.34.75 2.97.49.62 1.23.92 2.26.92.84 0 1.47-.21 1.92-.64.46-.43.74-1.09.84-1.96l.03-.28h7.19l-.01.34c-.11 2.52-1.09 4.5-2.92 5.9-1.82 1.38-4.34 2.08-7.5 2.08zm.53-22.85c-3.38 0-5.99.97-7.76 2.87-1.78 1.92-2.68 4.74-2.68 8.4 0 3.79.8 6.59 2.38 8.33 1.57 1.73 4.11 2.61 7.53 2.61 3.01 0 5.4-.66 7.1-1.96 1.59-1.22 2.48-2.93 2.65-5.08h-5.95c-.15.89-.48 1.59-1 2.07-.58.54-1.37.81-2.36.81-1.22 0-2.15-.39-2.76-1.16-.59-.75-.89-1.88-.89-3.37v-.8h13.04v-.54c0-4.09-.78-7.18-2.33-9.19-1.52-1.99-3.86-2.99-6.97-2.99zm3.5 8.79h-7.24V175c0-1.28.33-2.3.97-3.01.66-.73 1.58-1.09 2.74-1.09 1.13 0 2.01.36 2.62 1.08.6.7.91 1.71.91 2.99zm-6.59-.64h5.95c0-1.11-.26-1.97-.75-2.54-.49-.58-1.19-.85-2.14-.85-.99 0-1.73.29-2.26.88-.52.58-.79 1.42-.8 2.51zM224.82 188.78l-8.13-21.8h7.57l4.1 13.05 3.95-13.05h6.66L231 189.9c-.2.63-.47 1.58-.81 2.84s-.68 2.62-1.03 4.06H222z"/><path d="M229.43 197.12h-7.87l2.92-8.34-8.25-22.13h8.27l3.86 12.28 3.72-12.28h7.35L231.32 190c-.2.61-.46 1.54-.81 2.82-.34 1.26-.68 2.62-1.02 4.05zm-6.96-.64h6.45c.32-1.35.65-2.63.97-3.82.35-1.29.61-2.22.82-2.86l7.82-22.5h-5.97l-4.19 13.82-4.35-13.82h-6.87l8.01 21.48zM251.73 188.66v-31.04h12.83c4.45 0 7.84 1.35 10.19 4.05 2.34 2.7 3.51 6.62 3.51 11.77 0 4.97-1.1 8.75-3.31 11.33-2.21 2.59-5.43 3.88-9.67 3.88h-13.55zm11.31-24.23h-3.68v17.45h3.68c2.6 0 4.49-.68 5.67-2.04s1.76-3.55 1.76-6.57c0-2.96-.62-5.17-1.85-6.64-1.23-1.46-3.09-2.2-5.58-2.2z"/><path d="M265.27 188.98H251.4V157.3h13.15c4.53 0 8.04 1.4 10.43 4.16 2.38 2.75 3.59 6.78 3.59 11.98 0 5.02-1.14 8.91-3.39 11.54-2.26 2.65-5.59 4-9.91 4zm-13.22-.64h13.22c4.12 0 7.29-1.27 9.42-3.77 2.15-2.52 3.24-6.26 3.24-11.12 0-5.04-1.16-8.93-3.43-11.56-2.27-2.61-5.61-3.94-9.94-3.94h-12.51zm10.99-6.14h-4v-18.09h4c2.58 0 4.54.78 5.83 2.31 1.28 1.52 1.92 3.82 1.92 6.85 0 3.08-.62 5.36-1.84 6.78-1.23 1.43-3.22 2.15-5.91 2.15zm-3.36-.64h3.36c2.49 0 4.32-.65 5.43-1.93 1.12-1.29 1.68-3.43 1.68-6.36 0-2.87-.6-5.03-1.77-6.43-1.16-1.38-2.96-2.08-5.34-2.08h-3.36zM286.59 179.82v.48c0 1.42.27 2.47.82 3.17.55.69 1.38 1.04 2.51 1.04.91 0 1.63-.24 2.14-.72.52-.49.83-1.21.94-2.16h6.57c-.1 2.43-1.03 4.31-2.8 5.66-1.76 1.35-4.2 2.02-7.3 2.02-3.54 0-6.13-.91-7.77-2.72s-2.46-4.66-2.46-8.54c0-3.76.92-6.63 2.77-8.62 1.84-1.98 4.51-2.98 8-2.98 3.22 0 5.63 1.04 7.23 3.11 1.6 2.08 2.39 5.21 2.39 9.39v.86h-13.04zm6.6-4.57v-.29c0-1.21-.28-2.13-.83-2.78s-1.35-.97-2.38-.97c-1.07 0-1.91.33-2.5.99s-.89 1.59-.89 2.8v.25z"/><path d="M289.48 189.63c-3.62 0-6.31-.95-8.01-2.82-1.69-1.86-2.55-4.81-2.55-8.76 0-3.83.96-6.8 2.85-8.84 1.9-2.04 4.67-3.08 8.23-3.08 3.31 0 5.83 1.09 7.48 3.24 1.63 2.13 2.46 5.35 2.46 9.58v1.19H286.9v.16c0 1.34.25 2.34.75 2.97.49.62 1.22.92 2.26.92.84 0 1.46-.21 1.92-.64s.74-1.09.84-1.96l.03-.28h7.19l-.01.34c-.11 2.52-1.09 4.5-2.92 5.9-1.8 1.38-4.32 2.08-7.48 2.08zm.54-22.85c-3.38 0-5.99.97-7.76 2.87-1.78 1.92-2.68 4.74-2.68 8.4 0 3.79.8 6.59 2.38 8.33 1.57 1.73 4.11 2.61 7.53 2.61 3.01 0 5.4-.66 7.1-1.96 1.59-1.22 2.49-2.93 2.65-5.08h-5.95c-.15.89-.48 1.59-1 2.07-.58.54-1.37.81-2.36.81-1.22 0-2.15-.39-2.76-1.16-.59-.75-.89-1.88-.89-3.37v-.8h13.04v-.54c0-4.09-.78-7.18-2.33-9.19-1.53-1.99-3.87-2.99-6.97-2.99zm3.49 8.79h-7.24V175c0-1.28.33-2.3.97-3.01.66-.73 1.58-1.09 2.74-1.09 1.13 0 2.01.36 2.62 1.08.6.7.91 1.71.91 2.99zm-6.59-.64h5.96c0-1.11-.26-1.97-.75-2.54-.49-.58-1.19-.85-2.13-.85-.99 0-1.73.29-2.26.88-.54.58-.81 1.42-.82 2.51zM302.31 196.84v-26.2c0-.79-.02-1.48-.07-2.1-.04-.61-.11-1.12-.19-1.52h7.19c.09.43.16.94.2 1.52s.06 1.24.06 1.97c.83-1.33 1.79-2.34 2.87-3.01s2.29-1.01 3.6-1.01c2.46 0 4.43.99 5.91 2.96 1.47 1.97 2.21 4.59 2.21 7.86 0 3.59-.75 6.48-2.24 8.65-1.5 2.17-3.47 3.26-5.94 3.26-1.27 0-2.44-.31-3.51-.92-1.07-.62-2.04-1.53-2.9-2.74v11.28zm10.83-12.92c1.13 0 2.01-.55 2.67-1.66.65-1.11.98-2.61.98-4.5 0-1.87-.33-3.35-1-4.44-.66-1.1-1.56-1.64-2.68-1.64-1.15 0-2.04.53-2.68 1.59s-.96 2.54-.96 4.45c0 2.01.31 3.54.94 4.61.64 1.06 1.54 1.59 2.73 1.59z"/><path d="M309.83 197.16H302v-26.52c0-.78-.02-1.47-.07-2.07-.04-.59-.11-1.09-.18-1.49l-.08-.38h7.84l.05.25c.09.45.16.98.2 1.57.02.3.04.63.05.97.72-.96 1.52-1.72 2.4-2.26 1.13-.7 2.4-1.06 3.77-1.06 2.56 0 4.63 1.04 6.16 3.09 1.51 2.02 2.28 4.73 2.28 8.05 0 3.64-.77 6.61-2.3 8.83-1.55 2.26-3.64 3.4-6.2 3.4-1.32 0-2.55-.33-3.67-.97-.87-.5-1.69-1.2-2.42-2.07zm-7.2-.64h6.55v-11.96l.58.82c.83 1.16 1.77 2.05 2.8 2.64 1.02.58 2.14.88 3.35.88 2.37 0 4.23-1.02 5.67-3.12 1.45-2.11 2.19-4.96 2.19-8.47 0-3.18-.72-5.76-2.15-7.67-1.42-1.9-3.27-2.83-5.65-2.83-1.25 0-2.41.32-3.43.96-1.04.65-1.97 1.62-2.77 2.91l-.59.95v-1.12c0-.72-.02-1.37-.06-1.95-.03-.45-.08-.86-.14-1.23h-6.54c.05.34.1.74.13 1.18.04.61.07 1.33.07 2.12v25.89zm10.51-12.28c-1.3 0-2.31-.59-3-1.76-.66-1.11-.99-2.72-.99-4.77 0-1.96.34-3.51 1-4.62.7-1.16 1.69-1.74 2.95-1.74 1.24 0 2.23.6 2.96 1.8.69 1.14 1.04 2.69 1.04 4.61 0 1.94-.34 3.51-1.03 4.67-.7 1.2-1.69 1.81-2.93 1.81zm-.03-12.25c-1.03 0-1.82.47-2.4 1.43-.6 1-.91 2.45-.91 4.29 0 1.94.3 3.44.9 4.45.57.97 1.37 1.44 2.44 1.44 1.01 0 1.79-.49 2.39-1.5.62-1.05.94-2.51.94-4.34 0-1.8-.32-3.24-.95-4.27-.61-1.01-1.4-1.5-2.41-1.5zM339.54 185.46c-.69 1.25-1.58 2.17-2.68 2.78-1.09.6-2.42.91-3.98.91-2.22 0-3.93-.55-5.12-1.64-1.2-1.09-1.79-2.65-1.79-4.65 0-2.74 1.03-4.71 3.09-5.92s5.52-1.85 10.36-1.91c0-.04.01-.12.02-.24s.02-.21.02-.26c0-1.11-.24-1.94-.72-2.48-.48-.55-1.2-.82-2.17-.82-.87 0-1.54.2-2.01.6s-.75 1-.84 1.8h-6.66c.03-2.4.85-4.18 2.46-5.35s4.07-1.76 7.37-1.76c3.17 0 5.53.68 7.09 2.05 1.55 1.37 2.33 3.45 2.33 6.24v11.03c0 .69.02 1.24.07 1.66s.12.82.24 1.18h-6.69c-.13-.52-.23-1.04-.29-1.57-.07-.55-.1-1.09-.1-1.65zm-.15-6.19c-2.33 0-3.92.21-4.77.63s-1.27 1.16-1.27 2.21c0 .71.21 1.27.62 1.67s.99.6 1.74.6c1.23 0 2.15-.4 2.76-1.19s.92-1.99.92-3.59z"/><path d="M332.89 189.46c-2.29 0-4.09-.58-5.34-1.73-1.26-1.15-1.9-2.8-1.9-4.89 0-2.84 1.09-4.93 3.25-6.2 2.06-1.21 5.49-1.86 10.22-1.95.01-.08.01-.14.01-.19 0-1.02-.22-1.79-.64-2.27s-1.05-.71-1.92-.71c-.79 0-1.39.18-1.8.52-.4.34-.64.88-.72 1.59l-.03.29h-7.27v-.33c.03-2.5.91-4.38 2.59-5.61 1.66-1.21 4.21-1.82 7.56-1.82 3.24 0 5.69.72 7.3 2.13 1.62 1.43 2.43 3.61 2.43 6.48v11.03c0 .67.02 1.22.07 1.63.04.4.12.78.22 1.12l.13.41h-7.37l-.06-.24c-.13-.53-.23-1.07-.3-1.61l-.06-.62c-.62.86-1.37 1.53-2.24 2.01-1.14.65-2.53.96-4.13.96zm3.67-18.57c1.05 0 1.86.31 2.41.93.53.61.8 1.51.8 2.7 0 .06 0 .16-.02.29-.01.11-.01.18-.01.21v.32h-.32c-4.77.06-8.2.68-10.2 1.86-1.98 1.16-2.94 3.01-2.94 5.65 0 1.9.57 3.39 1.69 4.41 1.13 1.03 2.78 1.56 4.91 1.56 1.5 0 2.78-.29 3.83-.87 1.04-.57 1.89-1.46 2.55-2.65l.6.16c0 .54.03 1.08.09 1.59.05.43.12.86.22 1.28h6.02c-.06-.26-.11-.54-.14-.82-.05-.43-.07-1-.07-1.7v-11.03c0-2.68-.75-4.7-2.22-6-1.48-1.31-3.79-1.97-6.87-1.97-3.22 0-5.64.57-7.18 1.7-1.44 1.05-2.22 2.66-2.32 4.77h6.05c.13-.74.44-1.32.91-1.72.52-.44 1.27-.67 2.21-.67zm-.85 13.82c-.83 0-1.49-.23-1.96-.69s-.71-1.1-.71-1.91c0-1.18.49-2.02 1.45-2.5.9-.45 2.51-.66 4.91-.66h.32v.66c0 1.66-.33 2.94-.99 3.78-.68.87-1.69 1.32-3.02 1.32zm3.36-5.12c-2.1.02-3.54.22-4.3.6-.73.36-1.09.99-1.09 1.92 0 .63.17 1.1.52 1.44s.85.51 1.52.51c1.13 0 1.95-.35 2.51-1.07.56-.73.85-1.87.85-3.39v-.01zM349.91 188.7v-18.01c0-.79-.02-1.48-.07-2.09s-.11-1.12-.19-1.53h7.19c.1.49.17 1.03.22 1.62s.07 1.21.07 1.87c.67-1.4 1.46-2.43 2.38-3.08s2.02-.98 3.32-.98c.22 0 .39 0 .52.01.12.01.24.03.35.05v7.18c-.32-.04-.63-.07-.93-.09-.29-.02-.57-.03-.82-.03-1.79 0-3.05.49-3.77 1.47s-1.08 2.72-1.08 5.22v8.4h-7.19z"/><path d="M357.42 189.02h-7.83v-18.33c0-.78-.02-1.48-.07-2.07-.04-.6-.11-1.1-.18-1.49l-.08-.38h7.85l.05.26c.1.51.18 1.07.22 1.66.02.22.03.44.04.68.56-.91 1.2-1.63 1.9-2.12.97-.69 2.15-1.04 3.51-1.04.23 0 .41 0 .54.01.15.01.28.03.41.06l.24.06v7.79l-.36-.05c-.32-.04-.62-.07-.91-.09s-.55-.03-.8-.03c-1.68 0-2.86.45-3.51 1.34-.67.92-1.02 2.61-1.02 5.03zm-7.19-.64h6.55v-8.08c0-2.59.37-4.36 1.14-5.41.78-1.07 2.14-1.61 4.03-1.61.26 0 .54.01.84.03.19.01.38.03.58.05v-6.54h-.05c-.11-.01-.28-.01-.49-.01-1.22 0-2.28.31-3.13.92-.87.61-1.63 1.61-2.28 2.96l-.61-.14c0-.66-.02-1.28-.07-1.84-.04-.47-.09-.91-.17-1.33h-6.54c.05.34.09.73.13 1.18.05.6.07 1.32.07 2.12zM369.53 181.94v-10.18h-4.07v-5.26h4.07v-3.96l7.13-3.16v7.11h4.09v5.26h-4.09v8.31c0 1.17.21 1.98.64 2.45s1.17.71 2.24.71c.23 0 .49-.01.76-.03s.57-.05.88-.09v5.22c-.98.28-1.91.49-2.77.64-.87.15-1.68.22-2.43.22-2.32 0-3.98-.55-4.96-1.66-1-1.11-1.49-2.97-1.49-5.58z"/><path d="M375.97 189.5c-2.41 0-4.16-.59-5.2-1.77-1.04-1.17-1.56-3.11-1.56-5.79v-9.86h-4.07v-5.91h4.07v-3.84l7.77-3.44v7.29h4.09v5.91h-4.09v7.99c0 1.08.19 1.83.55 2.24.44.49 1.33.68 2.73.57.27-.02.56-.05.86-.09l.36-.05v5.83l-.23.07c-.98.28-1.92.5-2.81.65-.86.13-1.7.2-2.47.2zm-10.19-18.06h4.07v10.51c0 2.52.47 4.32 1.4 5.36.92 1.03 2.51 1.55 4.72 1.55.73 0 1.53-.07 2.37-.22.79-.13 1.63-.33 2.51-.57v-4.61c-.19.02-.36.04-.54.05-1.63.13-2.67-.13-3.26-.78-.49-.54-.72-1.41-.72-2.67v-8.63h4.09v-4.62h-4.09v-6.94l-6.49 2.87v4.07h-4.07v4.63zM383.99 188.66v-18.01c0-.73-.03-1.4-.08-2.02s-.12-1.15-.2-1.6h7.21c.08.43.14.94.19 1.52s.07 1.24.07 1.97c.72-1.35 1.58-2.35 2.59-3.02 1-.67 2.15-1 3.45-1 1.34 0 2.5.35 3.49 1.05s1.82 1.76 2.49 3.18c.89-1.46 1.87-2.53 2.93-3.21s2.28-1.02 3.66-1.02c2.13 0 3.77.75 4.92 2.25s1.73 3.64 1.73 6.42v13.49h-7.13v-12.8c0-1.3-.22-2.29-.65-2.97-.44-.67-1.07-1.01-1.9-1.01-1 0-1.75.5-2.23 1.5-.49 1-.73 2.52-.73 4.59v10.69h-7.13v-12.8c0-1.25-.22-2.22-.65-2.92s-1.04-1.05-1.82-1.05c-1 0-1.76.5-2.26 1.51s-.75 2.53-.75 4.57v10.69z"/><path d="M416.75 188.98h-7.77v-13.12c0-1.23-.2-2.17-.6-2.79-.38-.58-.91-.86-1.63-.86-.88 0-1.51.43-1.94 1.31-.46.95-.7 2.44-.7 4.45v11.01h-7.77v-13.12c0-1.18-.2-2.11-.6-2.76-.37-.6-.88-.9-1.54-.9-.88 0-1.52.44-1.97 1.34-.48.96-.72 2.45-.72 4.42v11.01h-7.83v-18.34c0-.72-.03-1.39-.07-2-.05-.61-.12-1.14-.19-1.57l-.07-.38h7.86l.05.26c.08.45.15.96.19 1.56.02.27.04.56.05.87.62-.91 1.32-1.64 2.1-2.16 1.05-.7 2.27-1.05 3.63-1.05 1.4 0 2.64.38 3.67 1.11.91.64 1.69 1.58 2.33 2.79.83-1.25 1.75-2.2 2.73-2.83 1.11-.71 2.4-1.07 3.84-1.07 2.22 0 3.96.8 5.17 2.38 1.19 1.55 1.79 3.78 1.79 6.62v13.82zm-7.13-.64h6.49v-13.17c0-2.69-.56-4.79-1.66-6.22s-2.62-2.13-4.66-2.13c-1.31 0-2.48.33-3.49.97-1.02.65-1.97 1.7-2.83 3.11l-.31.51-.25-.54c-.64-1.36-1.44-2.39-2.38-3.05-.93-.66-2.04-.99-3.3-.99-1.23 0-2.33.32-3.27.95-.96.64-1.79 1.61-2.48 2.91l-.61-.15c0-.71-.02-1.37-.07-1.94-.04-.46-.08-.87-.14-1.23h-6.56c.05.37.1.78.14 1.25.05.62.08 1.31.08 2.05v17.69h6.55v-10.37c0-2.1.26-3.64.79-4.71.56-1.12 1.42-1.69 2.55-1.69.9 0 1.6.41 2.09 1.21.46.75.69 1.79.69 3.09v12.48h6.49V178c0-2.13.25-3.68.76-4.73.54-1.11 1.39-1.67 2.52-1.67.94 0 1.67.39 2.17 1.16.47.73.71 1.78.71 3.14v12.44zM426.48 179.82v.48c0 1.42.27 2.47.82 3.17.55.69 1.38 1.04 2.51 1.04.91 0 1.63-.24 2.15-.72.52-.49.83-1.21.94-2.16h6.57c-.1 2.43-1.03 4.31-2.8 5.66-1.76 1.35-4.2 2.02-7.3 2.02-3.54 0-6.13-.91-7.77-2.72s-2.46-4.66-2.46-8.54c0-3.76.92-6.63 2.77-8.62 1.84-1.98 4.51-2.98 8-2.98 3.22 0 5.63 1.04 7.23 3.11 1.6 2.08 2.39 5.21 2.39 9.39v.86h-13.05zm6.6-4.57v-.29c0-1.21-.28-2.13-.83-2.78s-1.35-.97-2.38-.97c-1.08 0-1.91.33-2.5.99s-.89 1.59-.89 2.8v.25z"/><path d="M429.37 189.63c-3.62 0-6.31-.95-8.01-2.82-1.69-1.86-2.55-4.81-2.55-8.76 0-3.83.96-6.8 2.85-8.84 1.9-2.04 4.67-3.08 8.23-3.08 3.31 0 5.83 1.09 7.48 3.24 1.63 2.13 2.46 5.35 2.46 9.58v1.19H426.8v.16c0 1.34.25 2.34.75 2.97.49.62 1.22.92 2.25.92.84 0 1.47-.21 1.92-.64.46-.43.74-1.09.84-1.96l.03-.28h7.19l-.01.34c-.11 2.52-1.09 4.5-2.92 5.9-1.8 1.38-4.32 2.08-7.48 2.08zm.53-22.85c-3.38 0-5.99.97-7.76 2.87-1.78 1.92-2.68 4.74-2.68 8.4 0 3.79.8 6.59 2.38 8.33 1.57 1.73 4.1 2.61 7.53 2.61 3.01 0 5.4-.66 7.1-1.96 1.59-1.22 2.48-2.93 2.65-5.08h-5.95c-.15.89-.48 1.59-1 2.07-.58.54-1.37.81-2.37.81-1.22 0-2.15-.39-2.76-1.16-.59-.75-.89-1.88-.89-3.37v-.8h13.04v-.54c0-4.09-.78-7.18-2.33-9.19-1.51-1.99-3.86-2.99-6.96-2.99zm3.5 8.79h-7.24V175c0-1.28.33-2.3.97-3.01.66-.73 1.58-1.09 2.74-1.09 1.13 0 2.01.36 2.62 1.08.6.7.91 1.71.91 2.99zm-6.6-.64h5.96c0-1.11-.26-1.97-.75-2.54-.49-.58-1.19-.85-2.13-.85-.99 0-1.73.29-2.26.88-.54.58-.81 1.42-.82 2.51zM442.2 188.66v-18.01c0-.73-.03-1.4-.08-2.02s-.12-1.15-.2-1.6h7.21c.09.34.16.78.2 1.34.04.55.06 1.27.06 2.16.9-1.36 1.88-2.37 2.92-3.03s2.2-.99 3.47-.99c2.34 0 4.12.83 5.34 2.5s1.82 4.11 1.82 7.33v12.33h-7.19v-12.02c0-1.65-.23-2.86-.69-3.62-.46-.75-1.19-1.13-2.18-1.13-1.17 0-2.04.5-2.62 1.51s-.87 2.53-.87 4.57v10.69h-7.19z"/><path d="M463.25 188.98h-7.83v-12.34c0-1.59-.22-2.75-.65-3.45-.4-.66-1.03-.98-1.91-.98-1.05 0-1.82.44-2.34 1.35-.55.96-.83 2.44-.83 4.41v11.01h-7.83v-18.34c0-.72-.03-1.39-.08-2-.05-.6-.11-1.13-.19-1.57l-.07-.38h7.83l.07.24c.1.35.17.81.21 1.4.03.34.04.73.05 1.19.76-1 1.58-1.77 2.44-2.31a6.686 6.686 0 013.64-1.04c2.44 0 4.32.89 5.6 2.64 1.25 1.72 1.89 4.25 1.89 7.51zm-7.19-.64h6.55v-12.01c0-3.13-.59-5.53-1.76-7.14-1.16-1.6-2.82-2.37-5.08-2.37-1.2 0-2.31.32-3.29.94-1 .63-1.95 1.62-2.82 2.94l-.59.89v-1.07c0-.88-.02-1.59-.06-2.13-.03-.41-.08-.76-.13-1.04h-6.57c.05.37.1.79.14 1.25.05.62.08 1.31.08 2.05v17.69h6.55v-10.37c0-2.08.31-3.67.91-4.73.64-1.11 1.61-1.68 2.89-1.68 1.11 0 1.93.43 2.45 1.29.5.82.74 2.06.74 3.79v11.7zM468.68 181.94v-10.18h-4.07v-5.26h4.07v-3.96l7.13-3.16v7.11h4.09v5.26h-4.09v8.31c0 1.17.21 1.98.64 2.45.42.47 1.17.71 2.23.71.23 0 .49-.01.76-.03s.57-.05.88-.09v5.22c-.98.28-1.91.49-2.77.64-.87.15-1.67.22-2.42.22-2.32 0-3.98-.55-4.96-1.66-1-1.11-1.49-2.97-1.49-5.58z"/><path d="M475.12 189.5c-2.41 0-4.16-.59-5.2-1.77-1.04-1.17-1.57-3.11-1.57-5.79v-9.86h-4.07v-5.91h4.07v-3.84l7.77-3.44v7.29h4.09v5.91h-4.09v7.99c0 1.08.19 1.83.56 2.24.44.49 1.33.68 2.73.57.27-.02.56-.05.86-.09l.36-.05v5.83l-.23.07c-.98.28-1.92.5-2.81.65-.86.13-1.7.2-2.47.2zm-10.19-18.06H469v10.51c0 2.52.47 4.32 1.4 5.36.92 1.03 2.51 1.55 4.72 1.55.73 0 1.53-.07 2.37-.22.79-.13 1.63-.33 2.51-.57v-4.61c-.19.02-.36.04-.54.05-1.63.13-2.67-.13-3.26-.78-.49-.54-.72-1.41-.72-2.67v-8.63h4.09v-4.62h-4.09v-6.94l-6.49 2.87v4.07h-4.07v4.63zM506.2 189.18c-3.76 0-6.6-.95-8.52-2.86s-2.88-4.74-2.88-8.48c0-3.69.97-6.51 2.92-8.46s4.77-2.93 8.48-2.93c3.72 0 6.55.97 8.49 2.92 1.94 1.94 2.91 4.78 2.91 8.51 0 3.69-.97 6.5-2.91 8.42s-4.77 2.88-8.49 2.88zm-.09-4.79c1.3 0 2.31-.58 3.04-1.73s1.09-2.76 1.09-4.82-.36-3.68-1.09-4.84-1.73-1.75-3.01-1.75c-1.25 0-2.22.58-2.93 1.73-.7 1.15-1.06 2.76-1.06 4.82 0 2.09.34 3.71 1.03 4.86.7 1.15 1.67 1.73 2.93 1.73z"/><path d="M506.2 189.5c-3.83 0-6.77-.99-8.75-2.95-1.97-1.96-2.98-4.89-2.98-8.71 0-3.76 1.01-6.68 3.01-8.69 2-2 4.93-3.02 8.71-3.02 3.79 0 6.72 1.01 8.72 3.01 1.99 2 3 4.94 3 8.74 0 3.76-1.01 6.67-3.01 8.65-1.98 1.97-4.91 2.97-8.7 2.97zm0-22.72c-3.6 0-6.38.95-8.25 2.83s-2.83 4.65-2.83 8.23c0 3.64.94 6.42 2.79 8.25 1.85 1.84 4.64 2.77 8.29 2.77 3.62 0 6.4-.94 8.26-2.79 1.87-1.85 2.82-4.61 2.82-8.19 0-3.63-.95-6.41-2.82-8.28-1.87-1.88-4.65-2.82-8.26-2.82zm-.09 17.93c-1.37 0-2.45-.63-3.19-1.89-.72-1.19-1.08-2.88-1.08-5.02 0-2.11.37-3.79 1.1-4.99.76-1.25 1.84-1.88 3.2-1.88 1.39 0 2.49.64 3.28 1.9.76 1.21 1.14 2.9 1.14 5.01 0 2.12-.39 3.8-1.14 4.99-.79 1.24-1.91 1.88-3.31 1.88zm.03-13.14c-1.14 0-2 .51-2.65 1.57-.67 1.09-1.01 2.66-1.01 4.65 0 2.02.33 3.6.99 4.69.63 1.06 1.5 1.57 2.64 1.57 1.19 0 2.09-.52 2.77-1.58.69-1.09 1.04-2.65 1.04-4.65s-.35-3.56-1.05-4.67c-.67-1.05-1.57-1.58-2.73-1.58zM521.35 188.66v-16.5h-3.54v-5.13h3.54v-3.12c0-2.33.55-4.04 1.65-5.15 1.1-1.1 2.8-1.65 5.1-1.65.61 0 1.28.05 2.01.14s1.54.23 2.42.41v4.67c-.29-.01-.63-.03-1.01-.05s-.6-.03-.66-.03c-.86 0-1.46.2-1.79.61s-.49 1.16-.49 2.27v1.9h3.95v5.13h-3.95v16.5z"/><path d="M528.89 188.98h-7.86v-16.5h-3.54v-5.78h3.54v-2.79c0-2.41.59-4.21 1.74-5.37 1.16-1.16 2.95-1.75 5.33-1.75.62 0 1.31.05 2.05.14.73.09 1.53.23 2.44.41l.26.05v5.27l-1.35-.07c-.37-.02-.58-.03-.64-.03-.76 0-1.27.17-1.54.49-.19.24-.42.79-.42 2.07v1.57h3.95v5.78h-3.95v16.51zm-7.22-.64h6.58v-16.5h3.95v-4.49h-3.95v-2.22c0-1.2.18-2 .57-2.47.39-.48 1.08-.73 2.04-.73.06 0 .29.01.68.03l.67.04v-4.07c-.79-.16-1.49-.27-2.14-.35-.71-.09-1.37-.13-1.97-.13-2.2 0-3.84.52-4.87 1.56-1.03 1.03-1.55 2.69-1.55 4.92v3.44h-3.54v4.49h3.54v16.48zM547.41 188.66v-31.04h7.63v12.08h10.31v-12.08h7.66v31.04h-7.66V176.5h-10.31v12.16z"/><path d="M573.33 188.98h-8.3v-12.16h-9.66v12.16h-8.27V157.3h8.27v12.08h9.66V157.3h8.3zm-7.66-.64h7.02v-30.4h-7.02v12.08h-10.95v-12.08h-6.99v30.4h6.99v-12.17h10.95zM583.34 179.82v.48c0 1.42.27 2.47.82 3.17.55.69 1.38 1.04 2.51 1.04.91 0 1.63-.24 2.14-.72.52-.49.83-1.21.94-2.16h6.57c-.1 2.43-1.03 4.31-2.8 5.66-1.76 1.35-4.2 2.02-7.3 2.02-3.54 0-6.13-.91-7.77-2.72s-2.46-4.66-2.46-8.54c0-3.76.92-6.63 2.77-8.62 1.84-1.98 4.51-2.98 8-2.98 3.22 0 5.63 1.04 7.23 3.11 1.6 2.08 2.39 5.21 2.39 9.39v.86h-13.04zm6.6-4.57v-.29c0-1.21-.28-2.13-.83-2.78s-1.34-.97-2.38-.97c-1.08 0-1.91.33-2.5.99s-.89 1.59-.89 2.8v.25z"/><path d="M586.23 189.63c-3.62 0-6.31-.95-8.01-2.82-1.69-1.86-2.55-4.81-2.55-8.76 0-3.83.96-6.8 2.85-8.84 1.9-2.04 4.67-3.08 8.23-3.08 3.31 0 5.83 1.09 7.48 3.24 1.63 2.13 2.46 5.35 2.46 9.58v1.19h-13.04v.16c0 1.34.25 2.34.75 2.97.49.62 1.22.92 2.25.92.84 0 1.47-.21 1.92-.64.46-.43.74-1.09.84-1.96l.03-.28h7.19l-.01.34c-.11 2.52-1.09 4.5-2.92 5.9-1.79 1.38-4.31 2.08-7.47 2.08zm.53-22.85c-3.38 0-5.99.97-7.76 2.87-1.78 1.92-2.68 4.74-2.68 8.4 0 3.79.8 6.59 2.38 8.33 1.57 1.73 4.1 2.61 7.53 2.61 3.01 0 5.4-.66 7.1-1.96 1.59-1.22 2.49-2.93 2.65-5.08h-5.95c-.15.89-.48 1.59-1 2.07-.58.54-1.37.81-2.36.81-1.22 0-2.15-.39-2.76-1.16-.59-.75-.89-1.88-.89-3.37v-.8h13.04v-.54c0-4.09-.78-7.18-2.33-9.19-1.52-1.99-3.86-2.99-6.97-2.99zm3.5 8.79h-7.24V175c0-1.28.33-2.3.97-3.01.66-.73 1.58-1.09 2.74-1.09 1.13 0 2.01.36 2.62 1.08.6.7.91 1.71.91 2.99zm-6.59-.64h5.95c0-1.11-.26-1.97-.75-2.54-.49-.58-1.19-.85-2.13-.85-.99 0-1.73.29-2.26.88-.53.58-.8 1.42-.81 2.51zM611.63 185.46c-.69 1.25-1.58 2.17-2.68 2.78-1.09.6-2.42.91-3.98.91-2.22 0-3.93-.55-5.12-1.64-1.2-1.09-1.79-2.65-1.79-4.65 0-2.74 1.03-4.71 3.09-5.92s5.51-1.85 10.36-1.91c0-.04.01-.12.02-.24s.02-.21.02-.26c0-1.11-.24-1.94-.72-2.48-.48-.55-1.2-.82-2.17-.82-.87 0-1.54.2-2.01.6s-.75 1-.84 1.8h-6.66c.03-2.4.85-4.18 2.46-5.35s4.07-1.76 7.37-1.76c3.17 0 5.53.68 7.08 2.05s2.33 3.45 2.33 6.24v11.03c0 .69.02 1.24.07 1.66s.12.82.24 1.18h-6.69c-.13-.52-.23-1.04-.29-1.57-.05-.55-.09-1.09-.09-1.65zm-.15-6.19c-2.33 0-3.92.21-4.77.63s-1.27 1.16-1.27 2.21c0 .71.21 1.27.62 1.67s.99.6 1.74.6c1.23 0 2.15-.4 2.76-1.19s.92-1.99.92-3.59z"/><path d="M604.98 189.46c-2.29 0-4.09-.58-5.34-1.73-1.26-1.15-1.9-2.8-1.9-4.89 0-2.84 1.09-4.93 3.25-6.2 2.06-1.21 5.5-1.86 10.22-1.95.01-.08.01-.14.01-.19 0-1.02-.22-1.79-.64-2.27s-1.05-.71-1.92-.71c-.79 0-1.39.18-1.8.52-.4.34-.65.88-.73 1.59l-.03.29h-7.27v-.33c.03-2.5.91-4.38 2.59-5.61 1.66-1.21 4.2-1.82 7.56-1.82 3.24 0 5.69.72 7.3 2.13 1.61 1.43 2.43 3.61 2.43 6.48v11.03c0 .67.02 1.22.07 1.63.04.4.12.78.22 1.12l.13.41h-7.37l-.06-.24c-.13-.53-.23-1.07-.3-1.61l-.06-.62c-.62.86-1.37 1.53-2.24 2.01-1.13.65-2.52.96-4.12.96zm3.68-18.57c1.05 0 1.87.31 2.41.93.53.61.8 1.51.8 2.7 0 .06-.01.16-.02.29-.01.11-.01.18-.01.21v.32h-.32c-4.77.06-8.2.68-10.2 1.86-1.98 1.16-2.94 3.01-2.94 5.65 0 1.9.57 3.39 1.69 4.41 1.13 1.03 2.78 1.56 4.91 1.56 1.5 0 2.78-.29 3.83-.87 1.04-.57 1.89-1.46 2.55-2.65l.6.16c0 .54.03 1.08.09 1.59.05.43.12.86.22 1.28h6.02c-.06-.26-.11-.54-.14-.82-.05-.43-.07-1-.07-1.7v-11.03c0-2.68-.75-4.7-2.22-6-1.48-1.31-3.79-1.97-6.87-1.97-3.22 0-5.64.57-7.18 1.7-1.44 1.05-2.22 2.66-2.32 4.77h6.05c.13-.74.44-1.32.91-1.72.51-.44 1.26-.67 2.21-.67zm-.86 13.82c-.83 0-1.49-.23-1.96-.69s-.71-1.1-.71-1.91c0-1.18.49-2.02 1.45-2.5.9-.45 2.51-.66 4.91-.66h.32v.66c0 1.66-.33 2.94-.99 3.78-.68.87-1.69 1.32-3.02 1.32zm3.36-5.12c-2.1.02-3.54.22-4.3.6-.74.36-1.09.99-1.09 1.92 0 .63.17 1.1.52 1.44s.85.51 1.52.51c1.13 0 1.95-.35 2.51-1.07.56-.73.85-1.87.85-3.39v-.01zM621.97 188.66v-31.04h7.22v31.04z"/><path d="M629.52 188.98h-7.86V157.3h7.86zm-7.23-.64h6.58v-30.4h-6.58zM635.08 181.94v-10.18H631v-5.26h4.07v-3.96l7.13-3.16v7.11h4.09v5.26h-4.09v8.31c0 1.17.21 1.98.64 2.45.42.47 1.17.71 2.24.71.23 0 .49-.01.76-.03s.57-.05.88-.09v5.22c-.98.28-1.91.49-2.77.64-.87.15-1.67.22-2.42.22-2.32 0-3.98-.55-4.96-1.66-1-1.11-1.49-2.97-1.49-5.58z"/><path d="M641.52 189.5c-2.41 0-4.16-.59-5.2-1.77-1.04-1.17-1.57-3.11-1.57-5.79v-9.86h-4.07v-5.91h4.07v-3.84l7.77-3.44v7.29h4.09v5.91h-4.09v7.99c0 1.08.19 1.83.56 2.24.44.49 1.33.68 2.73.57.27-.02.56-.05.86-.09l.36-.05v5.83l-.23.07c-.98.28-1.92.5-2.81.65-.86.13-1.7.2-2.47.2zm-10.2-18.06h4.07v10.51c0 2.52.47 4.32 1.4 5.36.92 1.03 2.51 1.55 4.72 1.55.73 0 1.53-.07 2.37-.22.79-.13 1.63-.33 2.51-.57v-4.61c-.19.02-.36.04-.54.05-1.63.13-2.67-.13-3.26-.78-.49-.54-.72-1.41-.72-2.67v-8.63h4.09v-4.62h-4.09v-6.94l-6.49 2.87v4.07h-4.07v4.63zM649.57 188.66v-31.04h7.22v12.9c.85-1.33 1.81-2.34 2.87-3.01s2.22-1.01 3.49-1.01c2.35 0 4.14.79 5.36 2.38s1.83 3.9 1.83 6.94v12.84h-7.22v-12.33c0-1.49-.24-2.6-.71-3.33-.48-.74-1.2-1.11-2.16-1.11-1.17 0-2.03.5-2.6 1.5s-.85 2.53-.85 4.58v10.69z"/><path d="M670.65 188.98h-7.86v-12.65c0-1.42-.22-2.48-.66-3.16-.42-.64-1.04-.96-1.89-.96-1.05 0-1.81.44-2.32 1.34-.54.95-.81 2.43-.81 4.42v11.01h-7.86V157.3h7.86v12.2c.72-.96 1.52-1.71 2.37-2.25a6.76 6.76 0 013.66-1.06c2.44 0 4.33.84 5.61 2.5 1.26 1.64 1.9 4.04 1.9 7.14zm-7.22-.64h6.58v-12.52c0-2.96-.59-5.23-1.76-6.75s-2.84-2.26-5.1-2.26c-1.2 0-2.32.32-3.32.96-1.01.64-1.94 1.62-2.77 2.91l-.59.93v-13.68h-6.58v30.4h6.58v-10.37c0-2.12.29-3.67.89-4.73.62-1.11 1.59-1.67 2.88-1.67 1.07 0 1.89.42 2.43 1.25.52.8.77 1.94.77 3.51v12.02z"/></g></svg>